<?xml version="1.0" encoding="utf-8"?>
<!-- Generator: Adobe Illustrator 24.0.2, SVG Export Plug-In . SVG Version: 6.00 Build 0)  -->
<svg version="1.1" xmlns="http://www.w3.org/2000/svg" xmlns:xlink="http://www.w3.org/1999/xlink" x="0px" y="0px"
	 viewBox="0 0 856.01 582.01" style="enable-background:new 0 0 856.01 582.01;" xml:space="preserve">
<style type="text/css">
	.st0{fill:#E5E4E4;}
	.st1{fill:#E2F2FB;}
	.st2{fill:#449AD5;}
	.st3{fill:#A1ACAF;}
	.st4{fill:#C7D5DB;}
	.st5{fill:#7ACCEF;}
	.st6{fill:#C0DCE9;}
	.st7{fill:#FEF8FB;}
	.st8{fill:#F1A7C4;}
	.st9{fill:#EF7C6C;}
	.st10{fill:#487096;}
	.st11{fill:#6896CC;}
	.st12{fill:none;}
	.st13{fill:#E1F3FD;}
	.st14{fill:#76B6E5;}
	.st15{fill:#B85F56;}
	.st16{fill:#2F2B63;}
	.st17{fill:#3C3F86;}
	.st18{fill:#EB5D39;}
	.st19{fill:#F29489;}
	.st20{fill:#EF7F6E;}
	.st21{fill:#1D1E3E;}
	.st22{fill:#E51831;}
	.st23{opacity:0.69;fill:#F29489;}
	.st24{opacity:0.5;fill:#96BEE6;}
	.st25{fill:#02A1D4;}
	.st26{fill:#8CC584;}
	.st27{fill:#72B866;}
	.st28{fill:#4BC0E1;}
	.st29{fill:#73AA67;}
	.st30{fill:#32B6D4;}
	.st31{fill:#569365;}
	.st32{fill:#80CCDC;}
	.st33{fill:#5AC0CE;}
	.st34{fill:#F6F5F5;}
	.st35{fill:#FFE601;}
	.st36{fill:none;stroke:#FFE601;stroke-miterlimit:10;}
	.st37{fill:#CDCCCC;}
</style>
<g id="Capa_2">
	<path class="st0" d="M772.1,426.4h-49.29c-5.43,0-9.87-4.44-9.87-9.87v0c0-5.43,4.44-9.87,9.87-9.87h49.29
		c5.43,0,9.87,4.44,9.87,9.87v0C781.98,421.96,777.53,426.4,772.1,426.4z"/>
	<rect x="737.46" y="421.18" class="st0" width="21.49" height="110.29"/>
	<path class="st0" d="M770.07,546.94h-45.23c-4.26,0-7.74-3.48-7.74-7.74v0c0-4.26,3.48-7.74,7.74-7.74h45.23
		c4.26,0,7.74,3.48,7.74,7.74v0C777.81,543.45,774.33,546.94,770.07,546.94z"/>
	<path class="st0" d="M554.57,371.01L475.93,372c-3.36,0.04-6.07,2.82-6.02,6.18l0,0c0.04,3.36,4.82,3.32,8.17,3.27l76.65,1.76
		c3.36-0.04,6.07-2.82,6.02-6.18l0,0C560.71,373.68,557.93,370.97,554.57,371.01z"/>
	
		<rect x="503.69" y="376.33" transform="matrix(0.9999 -0.0126 0.0126 0.9999 -5.4286 6.5727)" class="st0" width="27.78" height="113.36"/>
	<path class="st0" d="M539.65,502.74l-42.69,0.54c-3.97,0.05-7.26-3.16-7.31-7.13v0c-0.05-3.97,3.16-7.26,7.13-7.31l42.69-0.54
		c3.97-0.05,7.26,3.16,7.31,7.13v0C546.83,499.4,543.62,502.69,539.65,502.74z"/>
	<g>
		<polygon class="st1" points="552.91,340.35 467.84,369 455.25,255.55 544.32,252.97 		"/>
		<polygon class="st2" points="546.78,336.75 473.97,359.57 463.77,261.92 539.65,259.45 		"/>
		<g>
			<polygon class="st3" points="632.05,342.09 608.42,368.3 467.89,368.26 468.38,370.67 608.43,372.11 632.79,342.28 			"/>
			<polygon class="st4" points="632.05,342.09 552.91,340.35 468.53,368.3 608.67,368.26 			"/>
		</g>
	</g>
	<g>
		<path class="st5" d="M604.52,483.72l5.64-4.89C608.42,480.14,606.51,481.76,604.52,483.72z"/>
		<path class="st5" d="M596.9,490.19l2.96-1.5C598.74,489.23,597.76,489.73,596.9,490.19z"/>
		<path class="st5" d="M600.93,487.57l3.51-3.78C603.29,484.93,602.12,486.19,600.93,487.57z"/>
		<path class="st5" d="M593.3,492.44l3.58-2.24C595.32,491.05,594.15,491.79,593.3,492.44z"/>
		<path class="st5" d="M578.12,505.96L578.12,505.96c0.01,0.07,0.03,0.13,0.04,0.2c-0.02-0.12-0.04-0.23-0.06-0.33
			C578.11,505.87,578.11,505.92,578.12,505.96z"/>
		<path class="st5" d="M581.25,496.45c0.66-0.62,1.42-1.21,2.19-1.68C582.63,495.24,581.9,495.8,581.25,496.45z"/>
		<path class="st5" d="M585.85,493.74l4.13-0.67l3.32-0.64l-6.14,0.99c-0.51,0.08-0.99,0.21-1.47,0.36
			c0.06-0.01,0.11-0.02,0.16-0.03L585.85,493.74z"/>
		<path class="st5" d="M666.63,482.23c-0.37-1.77-1.98-4.26-3.43-6.06c-3.06-3.8-7.1-4.04-9.79-4.24c-9.79-0.72-13.1,5.2-19.49,4.08
			l0.02,0.01c0,0,0.07,0.6-0.76,1.21c-0.83,0.61-2.88,0.4-8.98,1.45c-6.1,1.05-9.38,8.25-15.45,14.51
			c-4.54,4.68-6.16,9.55-6.69,11.71l66.3-10.71l0.59,4.07c-28.99,4.69-57.99,9.37-86.98,14.06c-0.1,0.02-0.21,0.03-0.31,0.05
			c2.37,2.11,5.63,3.19,8.99,2.64l55.61-8.99l12.83-2.07l10.44-1.69L666.63,482.23z M628.3,488.34c-1.03,0.17-2.09-1.14-2.38-2.92
			c-0.29-1.78,0.31-3.35,1.34-3.52c1.03-0.17,2.09,1.14,2.38,2.92C629.92,486.6,629.32,488.18,628.3,488.34z"/>
		<path class="st6" d="M585.85,493.74l0,0.01c0.3-0.05,0.58-0.07,0.82-0.02c0.39-0.03,5.55,1.14,8.18,3.49
			c1.73,1.54,4.84,5.08,6.22,7.83l1-0.16c0.53-2.16,2.14-7.03,6.69-11.71c6.07-6.26,9.35-13.46,15.45-14.51
			c6.1-1.05,8.15-0.84,8.98-1.45c0.83-0.61,0.76-1.21,0.76-1.21l-0.02-0.01l-3.61-1.23l0,0l-2.66-1.11l-0.01-0.01l-0.03-0.01
			l-2.4-0.62l-0.01,0l-0.06-0.01l-1.57-0.14l-0.2-0.02l-0.2,0.02l-2.68,0.27l-0.02,0l-0.03,0.01l-2.99,1.06l-0.01,0l-0.03,0.02
			l-2.98,1.64l-0.13,0.07l-0.13,0.09l-3.96,2.73l-0.03,0.02l-0.02,0.02l-5.64,4.89l-0.03,0.02l-0.05,0.05l-3.51,3.78l-0.02,0.03
			l-1,1.06l-0.06,0.03l-2.96,1.5l-0.01,0.01l0,0l-3.58,2.24l-3.32,0.64L585.85,493.74z"/>
		<path class="st7" d="M601.07,505.06c-1.38-2.76-4.49-6.29-6.22-7.83c-2.63-2.35-7.79-3.52-8.18-3.49
			c-0.23-0.05-0.51-0.03-0.82,0.02c-0.05,0.01-0.11,0.02-0.16,0.03c-0.67,0.15-1.46,0.5-2.26,0.99c-0.76,0.47-1.53,1.05-2.19,1.68
			c-0.04,0.04-0.09,0.08-0.13,0.12c-0.69,0.67-1.2,1.41-1.55,2.01c-0.06,0.11-0.12,0.21-0.17,0.3c-0.18,0.33-0.31,0.59-0.38,0.72
			c0,0.01-0.01,0.02-0.01,0.03c0,0.01-0.01,0.02-0.01,0.03c-0.14,0.28-0.27,0.6-0.39,0.96c0,0,0,0.01,0,0.01
			c-0.08,0.23-0.14,0.46-0.21,0.69c-0.07,0.25-0.13,0.5-0.18,0.74c-0.04,0.19-0.07,0.36-0.1,0.53c-0.01,0.04-0.01,0.08-0.02,0.13
			c-0.07,0.43-0.11,0.79-0.09,1c0,0.01,0,0.01,0,0.02c0,0.02,0,0.05,0,0.07c0,0.32-0.07,0.91,0.09,1.88
			c0.01,0.04,0.02,0.09,0.02,0.13c0.02,0.1,0.04,0.21,0.06,0.33c0.01,0.03,0.01,0.06,0.02,0.09c0.07,0.5,0.16,0.92,0.26,1.33
			c0.09,0.4,0.23,0.77,0.37,1.08l0.46-0.07L601.07,505.06z"/>
		<path class="st8" d="M668.96,498.25l-0.59-4.07l-66.3,10.71l-1,0.16l-21.81,3.52l-0.46,0.07l0,0c0,0.01,0.01,0.01,0.01,0.02
			c0.03,0.08,0.07,0.17,0.13,0.26c0,0,0,0,0,0c0.04,0.07,0.09,0.15,0.14,0.23c0.15,0.24,0.31,0.48,0.43,0.67
			c0.69,1.13,1.43,1.87,2.16,2.54c0,0,0.01-0.01,0.01-0.01c0,0,0,0,0,0c0.1-0.02,0.21-0.03,0.31-0.05
			C610.97,507.62,639.96,502.94,668.96,498.25z"/>
		<path class="st6" d="M627.26,481.9c-1.03,0.17-1.63,1.74-1.34,3.52c0.29,1.78,1.35,3.09,2.38,2.92c1.03-0.17,1.63-1.74,1.34-3.52
			C629.35,483.05,628.28,481.74,627.26,481.9z"/>
	</g>
	<g>
		<path class="st5" d="M623.75,500.04l5.64-4.89C627.66,496.46,625.75,498.07,623.75,500.04z"/>
		<path class="st5" d="M616.13,506.51l2.96-1.5C617.98,505.54,616.99,506.04,616.13,506.51z"/>
		<path class="st5" d="M620.17,503.89l3.51-3.78C622.53,501.25,621.35,502.5,620.17,503.89z"/>
		<path class="st5" d="M612.54,508.75l3.58-2.24C614.55,507.36,613.38,508.1,612.54,508.75z"/>
		<path class="st5" d="M597.35,522.28L597.35,522.28c0.01,0.07,0.03,0.13,0.04,0.2c-0.02-0.12-0.04-0.23-0.06-0.33
			C597.34,522.19,597.34,522.23,597.35,522.28z"/>
		<path class="st5" d="M600.48,512.76c0.66-0.62,1.42-1.21,2.19-1.68C601.87,511.56,601.13,512.12,600.48,512.76z"/>
		<path class="st5" d="M605.08,510.06l4.13-0.67l3.32-0.64l-6.14,0.99c-0.51,0.08-0.99,0.21-1.47,0.36
			c0.06-0.01,0.11-0.02,0.16-0.03L605.08,510.06z"/>
		<path class="st5" d="M685.87,498.55c-0.37-1.77-1.98-4.26-3.43-6.06c-3.06-3.8-7.1-4.04-9.79-4.24c-9.79-0.72-13.1,5.2-19.49,4.08
			l0.02,0.01c0,0,0.07,0.6-0.76,1.21c-0.83,0.61-2.88,0.4-8.98,1.45c-6.1,1.05-9.38,8.25-15.45,14.51
			c-4.54,4.68-6.16,9.55-6.69,11.71l66.3-10.71l0.59,4.07c-28.99,4.69-57.99,9.37-86.98,14.06c-0.11,0.02-0.21,0.03-0.31,0.05
			c2.37,2.11,5.63,3.19,8.99,2.64l55.61-8.99l12.83-2.07l10.44-1.69L685.87,498.55z M647.53,504.66c-1.03,0.17-2.09-1.14-2.38-2.92
			c-0.29-1.78,0.31-3.35,1.34-3.52c1.03-0.17,2.09,1.14,2.38,2.92C649.16,502.92,648.56,504.49,647.53,504.66z"/>
		<path class="st6" d="M605.08,510.06l0,0.01c0.3-0.05,0.58-0.07,0.82-0.02c0.39-0.03,5.55,1.14,8.18,3.49
			c1.73,1.54,4.84,5.08,6.22,7.83l1-0.16c0.53-2.16,2.14-7.03,6.69-11.71c6.07-6.26,9.35-13.46,15.45-14.51
			c6.1-1.05,8.15-0.84,8.98-1.45c0.83-0.61,0.76-1.21,0.76-1.21l-0.02-0.01l-3.61-1.23l0,0l-2.66-1.11l-0.01-0.01l-0.03-0.01
			l-2.4-0.62l-0.01,0l-0.06-0.01l-1.57-0.14l-0.2-0.02l-0.2,0.02l-2.68,0.27l-0.02,0l-0.03,0.01l-2.99,1.06l-0.01,0l-0.03,0.02
			l-2.98,1.64l-0.13,0.07l-0.13,0.09l-3.96,2.73l-0.03,0.02l-0.02,0.02l-5.64,4.89l-0.03,0.02l-0.05,0.05l-3.51,3.78l-0.02,0.03
			l-1,1.06l-0.06,0.03l-2.96,1.5l-0.01,0.01l0,0l-3.58,2.24l-3.32,0.64L605.08,510.06z"/>
		<path class="st7" d="M620.31,521.38c-1.38-2.76-4.49-6.29-6.22-7.83c-2.63-2.35-7.79-3.52-8.18-3.49
			c-0.23-0.05-0.51-0.03-0.82,0.02c-0.05,0.01-0.11,0.02-0.16,0.03c-0.67,0.15-1.46,0.5-2.26,0.99c-0.76,0.47-1.53,1.05-2.19,1.68
			c-0.04,0.04-0.09,0.08-0.13,0.12c-0.69,0.67-1.2,1.41-1.55,2.01c-0.06,0.11-0.12,0.21-0.17,0.3c-0.18,0.33-0.31,0.59-0.38,0.72
			c0,0.01-0.01,0.02-0.01,0.03c0,0.01-0.01,0.02-0.01,0.03c-0.14,0.28-0.27,0.6-0.39,0.96c0,0,0,0.01,0,0.01
			c-0.08,0.23-0.14,0.46-0.21,0.69c-0.07,0.25-0.13,0.5-0.18,0.74c-0.04,0.19-0.07,0.36-0.1,0.53c-0.01,0.04-0.01,0.08-0.02,0.13
			c-0.07,0.43-0.11,0.79-0.09,1c0,0.01,0,0.01,0,0.02c0,0.02,0,0.05,0,0.07c0,0.32-0.07,0.91,0.09,1.88
			c0.01,0.04,0.02,0.09,0.02,0.13c0.02,0.1,0.04,0.21,0.06,0.33c0.01,0.03,0.01,0.06,0.02,0.09c0.07,0.5,0.16,0.92,0.26,1.33
			c0.09,0.4,0.23,0.77,0.37,1.08l0.46-0.07L620.31,521.38z"/>
		<path class="st8" d="M688.19,514.57l-0.59-4.07l-66.3,10.71l-1,0.16l-21.81,3.52l-0.46,0.07l0,0c0,0.01,0.01,0.01,0.01,0.02
			c0.03,0.08,0.07,0.17,0.13,0.26c0,0,0,0,0,0c0.04,0.07,0.09,0.15,0.14,0.23c0.15,0.24,0.31,0.48,0.43,0.67
			c0.69,1.13,1.43,1.87,2.16,2.54c0,0,0.01-0.01,0.01-0.01c0,0,0,0,0,0c0.1-0.02,0.21-0.03,0.31-0.05
			C630.21,523.94,659.2,519.26,688.19,514.57z"/>
		<path class="st6" d="M646.49,498.22c-1.03,0.17-1.63,1.74-1.34,3.52c0.29,1.78,1.35,3.09,2.38,2.92s1.63-1.74,1.34-3.52
			C648.58,499.36,647.52,498.05,646.49,498.22z"/>
	</g>
	<path class="st9" d="M720.09,256.66c-2.43-2.92,3.38-5.54,5.79-14.38c3.68-13.5-6.23-20.76-0.81-24.55
		c5.91-4.13,24.57-0.27,27.65,6.3c1.45,3.1-1.68,4.4-1.93,9.4c-0.48,9.45,10.28,12.91,8.5,17.83
		C756.47,259.06,725.13,262.72,720.09,256.66z"/>
	<path class="st10" d="M623.12,479.1c0.88,1.59,32.61-0.12,35.69-1.55c-3.43-13.71-5.44-25.33-6.67-34.01
		c-1.87-13.18-3.07-19.75,0.56-24.54c2.72-3.59,7.8-9.12,12.93-10.47c14.39-3.79,34.79-0.29,42.74-0.12
		c13.32,0.28,19.04,1.71,35.93-0.96c5.88-0.93,11.75-2.17,15.69-7.19c3.51-4.48,3.87-9.9,4.31-18.25
		c0.28-5.19,0.22-12.74-1.57-21.84c-27.11-0.69-48.98,0.28-64.7,1.42c-5.92,0.43-16.69,1.3-30.4,4.47
		c-15.55,3.6-24.64,5.82-34.1,13.42c-3.18,2.56-13.1,10.74-18.24,25.44c-3.21,9.17-3.02,16.5-2.64,27.4
		C613.47,455.84,616.89,467.84,623.12,479.1z"/>
	<path class="st11" d="M640.67,488.82c0.88,1.59,32.61-0.12,35.69-1.55c-3.43-13.71-5.44-25.33-6.67-34.01
		c-1.87-13.18-3.07-19.75,0.56-24.54c2.72-3.59,7.8-9.12,12.93-10.47c14.39-3.79,34.79-0.29,42.74-0.12
		c13.32,0.28,19.04,1.71,35.93-0.96c5.88-0.93,11.75-2.17,15.69-7.19c3.51-4.48,3.87-9.9,4.31-18.25
		c0.28-5.19,0.22-12.74-1.57-21.84c-27.11-0.69-48.98,0.28-64.7,1.42c-5.92,0.43-16.69,1.3-30.4,4.47
		c-15.55,3.6-24.64,5.82-34.1,13.42c-3.18,2.56-13.1,10.74-18.24,25.44c-3.21,9.17-3.02,16.5-2.64,27.4
		C631.02,465.55,634.44,477.56,640.67,488.82z"/>
	<path class="st12" d="M712.94,369.33"/>
	<path class="st13" d="M712.94,264.1v105.23l6.71,6.47h64.1c0,0-11.41-129.21-21.64-131.54c-14.63-3.34-29.76-1.73-29.76-1.73
		c-1.75,0.17-8.13,1.02-13.37,6.43C713.06,255.08,712.93,262.57,712.94,264.1z"/>
	<path class="st14" d="M757.25,305.76c1.91-3.66,4.08-8.73,5.45-15.03c1.73-7.99,1.49-14.85,0.95-19.52
		c-4.06,10.19-8.13,20.37-12.19,30.56L757.25,305.76z"/>
	<path class="st15" d="M713.27,304.45l9.91,13.47c-13.12,16.91-26.16,24.34-33.1,27.58c-7.61,3.56-19.13,12.38-35.43,12.67
		c-30.44,0.54-32.56-8.81-33.6-10.87c-2.6-5.12-0.35-12.44,4.92-13.77c0.89-0.22,27.66,4.46,42.57,0.61c6.07-1.57,11.7-0.44,22.84-9
		C701.43,317.41,710.34,309.87,713.27,304.45z"/>
	<path class="st9" d="M726.44,290.63l23.21,13.26c-11.61,22.7-26.62,34.86-34.86,40.54c-9.05,6.23-19.09,12.24-41.16,17.46
		c-41.23,9.76-49.93,7.27-52.11,5.31c-5.43-4.9-5.07-13.69,1.61-16.75c1.12-0.51,33.88,0.49,52.75-8.27
		c7.68-3.57,21.15-7.88,33.15-20.72C719.86,309.87,724.45,297.52,726.44,290.63z"/>
	<ellipse class="st16" cx="700.04" cy="156.87" rx="8.25" ry="7.91"/>
	<ellipse class="st16" cx="701.85" cy="147.93" rx="8.25" ry="7.91"/>
	<ellipse class="st16" cx="705.99" cy="140.02" rx="8.25" ry="7.91"/>
	<path class="st17" d="M773.09,181.49L773.09,181.49c-2.49,0-4.53-2.04-4.53-4.53V146.7c0-2.49,2.04-4.53,4.53-4.53l0,0
		c2.49,0,4.53,2.04,4.53,4.53v30.26C777.62,179.46,775.58,181.49,773.09,181.49z"/>
	<path class="st16" d="M777.5,168.99c0.33,0.04,0.22,2.35,0.1,11.84c0.01,0.44,0.02,1.07,0,1.81c-0.19,6.27-2.36,11.1-3.66,13.54
		c-1.98,3.7-4.84,9.07-7.36,8.64c-3.45-0.58-6.66-12.08-2.42-18.66c0.83-1.28,2.84-3.25,6.86-7.18c2.1-2.05,3.68-3.47,4.98-6.08
		C777.11,170.67,777.21,168.96,777.5,168.99z"/>
	<path class="st9" d="M744.38,222.31h-26.87c-12.63,0-22.97-10.34-22.97-22.97v-30.78c0-12.63,10.34-22.97,22.97-22.97h26.87
		c12.63,0,22.97,10.34,22.97,22.97v30.78C767.35,211.98,757.01,222.31,744.38,222.31z"/>
	<path class="st16" d="M749.09,161.68c1.11,0.25,3.74,1.01,5.62,3.41c1.06,1.35,1.44,2.65,1.77,3.81c0.26,0.9,0.29,2.42,0.34,4.18
		c0.04,1.28,0.21,2.63-0.14,4.29l3.67,4.87l8.89-9.21c0,0,1.08-0.45,0.45-5.65c-0.63-5.2-2.8-9.31-2.8-9.31l-8.31-2.48
		L749.09,161.68z"/>
	<path class="st9" d="M765.88,189.24L765.88,189.24c-3.18,0-5.78-2.6-5.78-5.78v-7.55c0-3.18,2.6-5.78,5.78-5.78l0,0
		c3.18,0,5.78,2.6,5.78,5.78v7.55C771.67,186.64,769.06,189.24,765.88,189.24z"/>
	<path class="st18" d="M764.01,174.25h-0.69c-1.77,0-3.22,1.61-3.22,3.57v4.2v0.95v0.42v3.57h3.22h0.69h0.03v0
		c1.76-0.02,3.19-1.61,3.19-3.57v-5.57C767.23,175.86,765.78,174.25,764.01,174.25z"/>
	<path class="st19" d="M709.47,162.23c0.08-0.38,0.12-0.78,0.12-1.21c0-1.97-0.89-3.59-1.99-3.59h-6.4c-1.09,0-1.99,1.62-1.99,3.59
		c0,0.43,0.05,0.83,0.12,1.21H709.47z"/>
	<path class="st17" d="M761.04,151.46v-14.61c0-5.98-4.89-10.87-10.87-10.87h-35.86c-5.98,0-10.87,4.89-10.87,10.87v14.61
		c0,5.98,4.89,10.87,10.87,10.87h35.86C756.15,162.32,761.04,157.44,761.04,151.46z"/>
	<g>
		<path class="st16" d="M761.35,155.01c0.07,0.19,0.13,0.38,0.19,0.57C761.49,155.39,761.43,155.2,761.35,155.01z"/>
		<path class="st16" d="M714.9,164.26c-0.18-0.02-0.35-0.05-0.52-0.09C714.55,164.21,714.73,164.24,714.9,164.26z"/>
		<path class="st16" d="M761.61,155.82c0.04,0.18,0.08,0.37,0.11,0.56C761.69,156.19,761.65,156.01,761.61,155.82z"/>
		<path class="st16" d="M761.75,156.62c0.03,0.27,0.05,0.53,0.05,0.81C761.8,157.15,761.78,156.89,761.75,156.62z"/>
		<path class="st16" d="M712.9,162.32h38.69c4.77,0,8.74-3.59,9.36-8.21c0.13,0.23,0.24,0.47,0.34,0.72
			c-1.03-2.52-3.51-4.31-6.39-4.31h-39.08c-3.8,0-6.9,3.11-6.9,6.9c0,1.78,0.69,3.4,1.81,4.63
			C711.42,162.23,712.15,162.32,712.9,162.32z"/>
		<path class="st16" d="M712.38,163.4c0.17,0.1,0.35,0.19,0.53,0.28C712.73,163.59,712.55,163.5,712.38,163.4z"/>
		<path class="st16" d="M710.72,162.06c0.16,0.17,0.32,0.34,0.5,0.49C711.05,162.4,710.88,162.23,710.72,162.06z"/>
		<path class="st16" d="M713.54,163.93c-0.18-0.06-0.35-0.13-0.52-0.21C713.19,163.8,713.36,163.87,713.54,163.93z"/>
		<path class="st16" d="M714.2,164.13c-0.17-0.04-0.34-0.09-0.51-0.14C713.85,164.04,714.03,164.09,714.2,164.13z"/>
		<path class="st16" d="M715.82,164.33c-0.25,0-0.49-0.01-0.73-0.04C715.33,164.32,715.57,164.33,715.82,164.33z"/>
		<path class="st16" d="M711.78,163.01c0.17,0.13,0.35,0.24,0.54,0.35C712.13,163.25,711.95,163.14,711.78,163.01z"/>
		<path class="st16" d="M711.23,162.56c0.17,0.15,0.34,0.29,0.53,0.43C711.57,162.85,711.39,162.71,711.23,162.56z"/>
	</g>
	<path class="st17" d="M766.31,164.33h0.51c4.03,0,7.33-3.3,7.33-7.33v-18.63c0-4.03-3.3-7.33-7.33-7.33h-0.51
		c-4.03,0-7.33,3.3-7.33,7.33V157C758.98,161.03,762.27,164.33,766.31,164.33z"/>
	<path class="st17" d="M752.01,126.04c1.64-0.12,8.17,1.96,9.81,2.98c1.67,1.03,6.39,4.16,7.25,6.61c1.29,3.69-3.69,8.26-8.17,10.24
		c-3.99,1.76-9.03,0.58-11.19-2.54C745.98,137.94,747.23,126.38,752.01,126.04z"/>
	<path class="st17" d="M766.6,146.69h0.64c3.91,0,7.12-3.2,7.12-7.12v-1.9c0-3.91-3.2-7.12-7.12-7.12h-0.64
		c-3.91,0-7.12,3.2-7.12,7.12v1.9C759.49,143.49,762.69,146.69,766.6,146.69z"/>
	<path class="st17" d="M694.53,187.34c1.71,2.73,9.52,14.51,24.71,18.05c14.57,3.4,25.61-2.56,30.46-4.97
		c5.27-2.62,8.3-11.13,8.78-11.99l8.87,0.2c0.8,5.08,1.42,13.62-1.63,23.31c-0.87,2.77-1.97,6.29-4.51,10.05
		c-6.03,8.95-17.49,15.35-29.77,15.18c-13.68-0.18-22.69-8.44-25.01-10.56c-4.53-4.14-7.03-8.46-7.78-9.82
		c-0.55-0.99-2.82-5.21-4.12-11.38C692.96,197.97,693.67,191.55,694.53,187.34z"/>
	<path class="st20" d="M729.41,222h-11.74c-3.13,0-5.69-2.56-5.69-5.69v0c0-3.13,2.56-5.69,5.69-5.69h11.74
		c3.13,0,5.69,2.56,5.69,5.69v0C735.1,219.44,732.54,222,729.41,222z"/>
	<g>
		<g>
			<path class="st17" d="M704.28,178.68c0.28-0.29,0.58-0.56,0.9-0.82c-0.33,0.27,0.05-0.03,0.1-0.07c0.13-0.09,0.26-0.18,0.39-0.26
				c0.29-0.18,0.59-0.35,0.89-0.51c0.47-0.23,1.24-0.49,1.96-0.6c0.26-0.04,0.67-0.07,1.02-0.07c0.2,0,0.4,0.01,0.6,0.02
				c0.1,0.01,0.19,0.01,0.29,0.03c-0.11-0.02-0.11-0.02,0.01,0c0.67,0.1,1.34,0.3,1.97,0.55c-0.31-0.13,0.16,0.08,0.18,0.09
				c0.14,0.07,0.28,0.14,0.41,0.21c0.25,0.14,0.5,0.28,0.74,0.44c0.21,0.14,0.41,0.29,0.62,0.43c-0.38-0.27,0.08,0.07,0.21,0.18
				c0.18,0.15,0.35,0.31,0.51,0.47c1.57,1.6,4.03-0.86,2.46-2.46c-1.76-1.8-4.2-3.01-6.68-3.34c-3.33-0.44-6.7,0.84-9.03,3.24
				C700.26,177.83,702.72,180.29,704.28,178.68L704.28,178.68z"/>
		</g>
	</g>
	<g>
		<g>
			<path class="st17" d="M733.91,178.19c0.28-0.29,0.58-0.56,0.9-0.82c-0.33,0.27,0.05-0.03,0.1-0.07c0.13-0.09,0.26-0.18,0.39-0.26
				c0.29-0.18,0.59-0.35,0.89-0.51c0.47-0.23,1.24-0.49,1.96-0.6c0.26-0.04,0.67-0.07,1.02-0.07c0.2,0,0.4,0.01,0.6,0.02
				c0.1,0.01,0.19,0.01,0.29,0.03c-0.11-0.02-0.11-0.02,0.01,0c0.67,0.1,1.34,0.3,1.97,0.55c-0.31-0.13,0.16,0.08,0.18,0.09
				c0.14,0.07,0.28,0.14,0.41,0.21c0.25,0.14,0.5,0.28,0.74,0.44c0.21,0.14,0.41,0.29,0.62,0.43c-0.38-0.27,0.08,0.07,0.21,0.18
				c0.18,0.15,0.35,0.31,0.51,0.47c1.57,1.6,4.03-0.86,2.46-2.46c-1.76-1.8-4.2-3.01-6.68-3.34c-3.33-0.44-6.7,0.84-9.03,3.24
				C729.89,177.34,732.34,179.8,733.91,178.19L733.91,178.19z"/>
		</g>
	</g>
	<g>
		<path class="st18" d="M699.83,189.86h19c-0.37-4.78-3.88-8.57-8.07-9.17C705.7,179.96,700.43,183.97,699.83,189.86z"/>
		<circle class="st21" cx="709.26" cy="190.19" r="4.86"/>
	</g>
	<g>
		<path class="st18" d="M729.8,189.86h19c-0.37-4.78-3.88-8.57-8.07-9.17C735.67,179.96,730.4,183.97,729.8,189.86z"/>
		<circle class="st21" cx="739.24" cy="190.19" r="4.86"/>
	</g>
	<path class="st22" d="M716.96,214.31c0,0-1.98,0.22-1.94,1.68c0.04,1.46,0.88,2.19,4.43,2.45c8.49,0.61,12.18-2.34,11.89-3.29
		c-0.21-0.67-1.08-1.12-2.16-1.21"/>
	<path class="st18" d="M727.05,205.55h-10.1c-1.39,0-2.53-1.14-2.53-2.53v0c0-1.39,1.14-2.53,2.53-2.53h10.1
		c1.39,0,2.53,1.14,2.53,2.53v0C729.58,204.41,728.44,205.55,727.05,205.55z"/>
	<polygon class="st23" points="721.21,182.09 727.95,182.09 722.8,200.48 716.3,200.32 	"/>
	<path class="st19" d="M716.83,172.08c0.16-0.39,0.25-0.81,0.25-1.26c0-1.85-1.52-3.37-3.37-3.37h-5.38c-1.85,0-3.37,1.52-3.37,3.37
		c0,0.45,0.09,0.87,0.25,1.26H716.83z"/>
	<path class="st19" d="M740.65,170.46c0.14-0.38,0.23-0.78,0.23-1.21c0-1.97-1.62-3.59-3.59-3.59h-11.57
		c-1.97,0-3.59,1.62-3.59,3.59c0,0.43,0.09,0.83,0.23,1.21H740.65z"/>
</g>
<g id="Capa_1">
</g>
<g id="Capa_3">
</g>
<g id="Capa_5">
</g>
<g id="Capa_4">
	<g>
		<polygon class="st24" points="418.54,286.53 48.79,354.32 48.79,82.85 418.54,150.64 		"/>
		<g>
			<path class="st12" d="M301.42,232.47c0.53-0.31,0.96-0.68,1.3-1.11C302.38,231.79,301.95,232.16,301.42,232.47z"/>
			<path class="st12" d="M311.91,238.61c1.68,0.45,3.35,0.89,5,1.33c1.7-0.02,2.74-0.03,3.3,0.2c-0.56-0.23-1.61-0.22-3.3-0.2
				C315.26,239.5,313.59,239.05,311.91,238.61c-0.51-0.9-1.01-1.8-1.52-2.71c0.26-0.03,0.52-0.07,0.78-0.1
				c-0.26,0.03-0.52,0.07-0.78,0.1C310.9,236.81,311.4,237.71,311.91,238.61z"/>
			<path class="st12" d="M320.05,252.03c-1.3-0.87-2.6-1.74-3.91-2.61c0-1.68,0-3.36,0-5.04c0,1.68,0,3.36,0,5.04
				C317.46,250.3,318.76,251.17,320.05,252.03z"/>
			<path class="st12" d="M331.05,218.92c1.73,1.38,3.45,2.76,5.16,4.12C334.5,221.68,332.78,220.3,331.05,218.92
				c-1.55-2.14-3.11-4.28-4.68-6.45v0C327.94,214.63,329.5,216.78,331.05,218.92z"/>
			<path class="st12" d="M336.29,194.67c0.67-1.67,0.86-3.33,0.67-4.98C337.14,191.34,336.95,193,336.29,194.67
				c0.62-0.1,1.25-0.16,1.86-0.28C337.54,194.51,336.9,194.57,336.29,194.67z"/>
			<path class="st12" d="M302.69,224.25C302.69,224.25,302.69,224.25,302.69,224.25c4.53,0.55,6.78,1.59,7.18,3.65
				C309.48,225.84,307.22,224.8,302.69,224.25z"/>
			<path class="st12" d="M308.53,233.55L308.53,233.55c0.62,0.79,1.24,1.57,1.85,2.35C309.77,235.12,309.15,234.34,308.53,233.55z"
				/>
			<path class="st12" d="M316.75,255.27c0.77,0.45,1.35,0.91,1.75,1.38C318.1,256.18,317.52,255.72,316.75,255.27
				c-1.88,0.89-3.78,1.79-5.69,2.69C312.97,257.06,314.86,256.16,316.75,255.27z"/>
			<path class="st12" d="M314.35,261.81c-1.09-1.28-2.19-2.56-3.29-3.85c-0.28,0.02-0.56,0.03-0.84,0.05
				c0.28-0.02,0.56-0.03,0.84-0.05C312.16,259.25,313.26,260.54,314.35,261.81z"/>
			<path class="st12" d="M308.57,257.91c0.55,0.03,1.1,0.07,1.65,0.1c0,0,0,0,0,0C309.67,257.98,309.12,257.95,308.57,257.91z"/>
			<path class="st12" d="M315.62,226.02c2.37-0.22,4.57-0.42,6.74-0.62c0.8,0.94,1.59,1.87,2.38,2.81
				c-0.79-0.93-1.59-1.87-2.38-2.81C320.18,225.6,317.99,225.8,315.62,226.02z"/>
			<path class="st12" d="M211.78,148.13c0,0,0.03,0.02,0.05,0.04L211.78,148.13C211.78,148.13,211.78,148.13,211.78,148.13z"/>
			<path class="st12" d="M215.31,170.41c-0.31,0.77-1.03,1.59-0.81,2.31c0.17,0.56,1.46,1.19,2.38,1.43
				c0.52,0.14,1.89-0.51,1.83-0.7c-0.23-0.68-0.88-1.3-1.38-1.95C216.66,171.14,215.98,170.78,215.31,170.41z"/>
			<path class="st12" d="M219.54,167.09C219.54,167.09,219.54,167.08,219.54,167.09c-0.22-0.19-0.43-0.39-0.62-0.61
				c-0.63-1.09-1.27-2.18-2.22-3.82c-0.93,0.44-2.96,0.81-3.6,1.78c-1.89,2.87-3.26,5.99-4.83,9.04
				C212.08,171.32,215.84,169.19,219.54,167.09z"/>
			<path class="st12" d="M296.73,201.5c-0.66-0.04-1.32-0.07-1.99-0.11c-0.92-1.53-1.83-3.06-2.76-4.6c0.92,1.54,1.84,3.07,2.76,4.6
				C295.41,201.43,296.07,201.47,296.73,201.5z"/>
			<path class="st12" d="M204.56,172.51c-1.45-2.99-3.34-3.72-6.69-1.87c-2.75,1.52-5.71,2.89-9.98,5.02
				c6.12,3.93,10.34,6.64,15.13,9.71c0,0.86,0,2.58,0,5.12c1.48-2.46,2.18-4.08,3.35-5.48c2.94-3.5,4.69-7.08,1.78-11.4
				C206.89,173.26,204.83,173.05,204.56,172.51z"/>
			<path class="st12" d="M333.98,211.84c2.47,0.56,4.92,1.12,7.34,1.67c0,0,0,0,0,0C338.9,212.95,336.45,212.4,333.98,211.84z"/>
			<path class="st12" d="M320.05,252.03C320.05,252.03,320.05,252.03,320.05,252.03c-1.1,1.07-2.2,2.15-3.31,3.24
				C317.85,254.19,318.96,253.11,320.05,252.03z"/>
			<path class="st12" d="M341.32,213.5c1.01-0.47,2.01-0.94,3.01-1.41c0.47-0.24,0.94-0.48,1.41-0.72
				c-0.47,0.24-0.94,0.48-1.41,0.72C343.33,212.56,342.33,213.03,341.32,213.5z"/>
			<path class="st12" d="M332.46,207.14c-0.26-1.25-0.53-2.5-0.79-3.75c1.05-1.78,2.1-3.56,3.14-5.33
				c-1.04,1.77-2.09,3.54-3.14,5.33c-0.73,0.01-1.46,0.03-2.19,0.04c0.11,1.15,0.12,2.31,0.34,3.45c0.23,1.2,0.65,2.37,0.99,3.55
				c-1.02-0.34-2.05-0.69-3.22-1.08c1.17,0.39,2.2,0.74,3.22,1.08c1.06,0.47,2.12,0.93,3.17,1.4
				C333.48,210.27,332.97,208.71,332.46,207.14C332.46,207.14,332.46,207.14,332.46,207.14z"/>
			<path class="st12" d="M377.56,199.35c-0.22-0.22-0.4-0.49-0.61-0.72c0.27-0.56,0.53-1.12,0.83-1.74
				c-0.3,0.62-0.56,1.18-0.83,1.74C377.16,198.86,377.35,199.12,377.56,199.35z"/>
			<path class="st12" d="M300.81,197.38c-0.08,1.43,0,2.9-0.03,4.34c0,0,0,0,0,0C300.81,200.28,300.72,198.82,300.81,197.38z"/>
			<path class="st12" d="M307.65,200.43c-0.5,0.74-1.01,1.49-1.51,2.23C306.65,201.91,307.15,201.17,307.65,200.43
				C307.65,200.43,307.65,200.43,307.65,200.43z"/>
			<path class="st12" d="M327.11,239.41c0.31-0.24,0.62-0.48,0.9-0.7C327.73,238.93,327.42,239.17,327.11,239.41
				c-3.11,0.11-5.34-0.33-6.64-1.31C321.77,239.08,323.99,239.52,327.11,239.41z"/>
			<path class="st12" d="M312.61,205.76c-0.31,0.2-0.63,0.4-0.94,0.6C311.98,206.15,312.29,205.95,312.61,205.76
				c0.65,0.62,1.25,1.7,1.95,1.76c2.81,0.26,5.61,0.21,8.78,0.28c-1.24-1.69-2.34-3.19-3.45-4.7c-1.81,0.45-3.64,0.9-5.48,1.36
				C313.8,204.89,313.2,205.32,312.61,205.76z"/>
			<path class="st12" d="M311.53,192.22c-1.21,1.01-2.42,2.02-3.65,3.04c-0.01,0.53-0.02,1.06-0.03,1.59
				c0.01-0.53,0.02-1.06,0.03-1.59C309.1,194.24,310.32,193.23,311.53,192.22z"/>
			<path class="st12" d="M320.45,238.08c-1.01-0.77-1.45-1.87-1.33-3.3c0,0,0,0,0,0C319,236.21,319.44,237.31,320.45,238.08z"/>
			<path class="st12" d="M307.85,196.85c-0.07,1.19-0.13,2.39-0.2,3.58C307.72,199.23,307.79,198.04,307.85,196.85
				C307.85,196.85,307.85,196.85,307.85,196.85z"/>
			<path class="st12" d="M277.79,223.69c0.79-0.82,1.52-1.57,2.23-2.31c0.31-0.25,0.6-0.58,0.9-0.86c-0.3,0.29-0.59,0.61-0.9,0.86
				C279.31,222.13,278.58,222.87,277.79,223.69z"/>
			<path class="st12" d="M290.36,236.48c0.58-0.72,1.16-1.44,1.74-2.16c0.63-0.15,1.27-0.4,1.9-0.51c-0.63,0.11-1.27,0.36-1.9,0.51
				C291.53,235.04,290.95,235.76,290.36,236.48z"/>
			<path class="st12" d="M303.45,229.9c-0.15,0.54-0.4,1.03-0.74,1.46C303.05,230.93,303.3,230.44,303.45,229.9z"/>
			<path class="st12" d="M286.52,212.79L286.52,212.79l0.22,0.04c0.55-0.27,1.1-0.53,1.65-0.8c-0.55,0.27-1.1,0.53-1.65,0.8
				C286.74,212.83,286.52,212.79,286.52,212.79z"/>
			<path class="st12" d="M311.68,207.24c-0.08,0.6-0.33,1.21-0.55,1.82C311.36,208.44,311.6,207.83,311.68,207.24z"/>
			<path class="st12" d="M306.05,216.58c1.82-1.52,3.37-0.84,5.02,0.05c2.43,0.05,4.84,0.1,7.22,0.15c0.28-1.19,0.55-2.37,0.83-3.55
				c-2.13,0.04-4.27,0.09-6.44,0.13c-1.25,0.11-2.85,0.69-3.68,0.21c-1.29-0.75-2.05-2.22-3.03-3.4v0
				c-1.65-1.22-2.16-0.58-2.84,0.93c-0.34,0.75-1.99,1.03-3.06,1.53c-0.26-0.38-0.52-0.76-0.78-1.14c0.78-0.49,1.57-0.98,2.69-1.69
				c-1.48-0.94-2.71-1.73-4.02-2.57c-0.51,1.11-0.94,2.07-1.37,3.02c-0.38,0.02-0.76,0.05-1.14,0.07c-0.25-1.42-0.51-2.84-0.76-4.27
				c0.02-1.55,0.05-3.11,0.07-4.66c-0.02,1.55-0.05,3.11-0.07,4.66c-4.65,0-6.16,2.45-6.28,5.97c0.02-0.01,0.04-0.02,0.06-0.03l0,0
				c0,0,0,0,0,0l-0.02,0.01c-0.02,0.01-0.04,0.02-0.04,0.02c1.62,0.03,3.35,0.38,4.81,0.02c3.69-0.91,5.3,0.49,5.96,3.33
				c1.3,0.62,2.54,1.45,3.92,1.76C303.98,217.35,305.41,217.11,306.05,216.58z"/>
			<path class="st12" d="M293.04,228.89c-1.99-1.65-3.94-3.39-6.42-4.56C289.09,225.5,291.05,227.24,293.04,228.89
				C293.04,228.89,293.04,228.89,293.04,228.89z"/>
			<path class="st12" d="M297.71,218.85c-0.3,0.96-0.41,1.91-0.09,2.82C297.3,220.76,297.41,219.81,297.71,218.85z"/>
			<path class="st12" d="M354.81,216.35c0.24,0.42,0.47,0.84,0.71,1.26c2.23,0.62,4.44,1.24,6.63,1.85
				c-2.19-0.61-4.39-1.23-6.63-1.85C355.28,217.2,355.05,216.78,354.81,216.35c-1.35,0.19-2.71,0.38-4.08,0.57
				C352.1,216.73,353.46,216.54,354.81,216.35z"/>
			<path class="st12" d="M358.18,220.77c1.05,0.23,2.41,0.08,4.09-0.43c0,0,0,0,0,0C360.59,220.86,359.24,221,358.18,220.77z"/>
			<path class="st12" d="M199.08,154.76c-0.81-2.74-1.49-5.07-2.18-7.41c-1.08,1.62-2.53,3.14-3.08,4.91
				c-0.33,1.06,0.83,2.5,1.36,3.86C196.96,155.5,198.27,155.04,199.08,154.76z"/>
			<path class="st12" d="M354.84,215.4c-0.09-2.06-1.3-3.02-4.8-4.09c-0.99,0.04-1.99,0.09-2.99,0.13c1-0.04,2-0.09,2.99-0.13
				C353.54,212.38,354.75,213.34,354.84,215.4z"/>
			<path class="st12" d="M317.42,198.46c-1.05-0.67-2.09-1.34-3.13-2c0,0,0,0,0,0C315.33,197.13,316.37,197.79,317.42,198.46z"/>
			<path class="st12" d="M306.08,193.55c0.26-1.88,0.51-3.76,0.77-5.63c1.09-0.17,2.17-0.35,3.25-0.52
				c-1.08,0.17-2.16,0.35-3.25,0.52c-2.75-0.83-2.65-2.72-2.54-4.62c-0.45,1.17-0.85,2.36-1.35,3.51c-0.82,1.89,2.41,4.18-0.34,5.87
				c-0.43,0.82-1.04,1.6-1.4,2.43c0.36-0.83,0.97-1.62,1.4-2.43C303.77,192.97,304.93,193.26,306.08,193.55z"/>
			<path class="st12" d="M335.52,226.58L335.52,226.58c-2.82,1-5.68,2.01-8.57,3.03C329.84,228.59,332.7,227.58,335.52,226.58z"/>
			<path class="st12" d="M234.47,142.22c0.27,0.39,0.53,0.78,0.8,1.18c2.39-0.04,4.77-0.09,7.18-0.13
				c-0.23-1.37-0.43-2.62-0.71-4.27C239.16,140.14,236.83,141.17,234.47,142.22z"/>
			<path class="st12" d="M310.2,252.88c-0.54,1.67-1.09,3.35-1.63,5.03c-3.34,0.05-6.73,0.11-10.17,0.17
				c3.44-0.06,6.83-0.11,10.17-0.16C309.12,256.23,309.66,254.55,310.2,252.88z"/>
			<path class="st12" d="M225.87,277.72c2.36,0.95,4.71,1.89,7.03,2.82C230.57,279.6,228.23,278.67,225.87,277.72
				C225.87,277.72,225.87,277.72,225.87,277.72z"/>
			<path class="st12" d="M316.03,261.82c0.26,0,0.51,0,0.77,0c0.5,0.87,0.99,1.74,1.49,2.61c-0.49-0.87-0.99-1.74-1.49-2.61
				C316.54,261.82,316.28,261.82,316.03,261.82z"/>
			<path class="st12" d="M284.65,236.74c0.03,1.27,0.06,2.55,0.09,3.82C284.71,239.29,284.68,238.01,284.65,236.74
				C284.65,236.74,284.65,236.74,284.65,236.74z"/>
			<path class="st12" d="M227.03,276.01C227.03,276.01,227.03,276.01,227.03,276.01c-2.7-1.49-5.43-2.99-8.18-4.5
				C221.6,273.03,224.33,274.53,227.03,276.01z"/>
			<path class="st12" d="M300.97,248.8c-0.32,0.1-0.65,0.2-0.97,0.3C300.32,249,300.64,248.9,300.97,248.8
				C300.97,248.8,300.97,248.8,300.97,248.8z"/>
			<polygon class="st12" points="370.02,236.94 370.02,236.94 370.02,236.94 			"/>
			<path class="st12" d="M316.15,244.38c1.28-0.08,2.56-0.16,3.83-0.24c1.56,0.87,3.12,1.73,4.66,2.58
				c-1.54-0.85-3.09-1.72-4.66-2.58C318.7,244.22,317.43,244.3,316.15,244.38z"/>
			<path class="st12" d="M284.78,235.23c1.82,0.49,3.62,0.97,5.42,1.45c-0.26,0.73-0.52,1.47-0.78,2.21
				c0.26-0.74,0.52-1.47,0.78-2.21C288.4,236.21,286.6,235.72,284.78,235.23z"/>
			<path class="st12" d="M324.74,228.21c0.74,0.47,1.47,0.94,2.21,1.41c0.33,0.96,0.67,1.91,1,2.86c-0.33-0.95-0.67-1.91-1-2.86
				C326.21,229.15,325.48,228.68,324.74,228.21z"/>
			<path class="st25" d="M348.52,156.07c0.02,0,0.03,0.01,0.05,0.01c0-0.02,0-0.04,0-0.06
				C348.57,156.03,348.52,156.07,348.52,156.07z"/>
			<polygon class="st25" points="348.52,156.07 348.52,156.07 348.52,156.07 			"/>
			<path class="st25" d="M335.42,177.01c-2.17,2.47-1.5,5.02-0.08,7.76c0.43,0.82,0.78,1.64,1.05,2.46c0.2,0.62,0.36,1.23,0.47,1.85
				c0.04,0.21,0.07,0.41,0.09,0.62c0.19,1.65,0,3.31-0.67,4.98c0.62-0.1,1.25-0.16,1.86-0.28c0.2-0.04,0.4-0.09,0.59-0.15
				c4.68-1.44,8.74-1.03,12.6,2.56c0.37,0.35,0.82,0.62,1.31,0.85c1.46,0.68,3.32,0.95,4.87,1.51c1.74-0.48,3.46-0.96,5.17-1.44
				c0.15,0.27,0.3,0.54,0.45,0.8c0.25-0.76,0.51-1.51,0.78-2.32c0.89,0.28,1.7,0.6,2.53,0.77c2.76,0.57,5.35,2.78,8.28,1.05
				c0.46-0.27,1.47,0.38,2.22,0.6c0.27-0.56,0.53-1.12,0.83-1.74c0.1-0.21,0.2-0.42,0.31-0.65c0.17-0.36,0.36-0.75,0.56-1.17
				c0.1-0.21,0.21-0.43,0.31-0.66c0.89-0.41,1.71,0.19,2.88,1.73c1.43,1.88,3.54,3.19,6.03,5.32c-0.58,0.99-1.73,2.65-2.55,4.49
				c-0.58,1.3-0.7,2.84-1.02,4.27c0.35,0.02,0.7,0.04,1.05,0.05c0.62-0.42,1.23-0.85,1.85-1.27c0.39-1.39,0.52-3.84,1.2-3.99
				c2.75-0.63,2.31-3.02,2.77-4.82c0.31-1.21,0.11-2.59,0.14-3.9c-0.4-1.4-0.81-2.8-1.21-4.21c-0.71-0.21-1.42-0.43-2.14-0.64
				c-0.49-0.15-1.27-0.14-1.44-0.45c-0.65-1.23,1.59-5.5,2.95-5.8c1.73-0.38,3.46-0.72,4.66-0.96c0.14-1.66,0.24-2.77,0.33-3.88
				c0.39-0.02,0.77-0.04,1.16-0.06c0.41,1.36,1.48,3.05,1.12,4.01c-1.56,4.14,0.72,6.73,3.06,9.48c2.06-3.34,1.67-6.47-0.69-9.58
				c0.33-0.25,0.71-0.46,0.97-0.78c0.61-0.76,1.16-1.58,2.02-2.77c0.5-1.06,1.24-2.59,2.28-4.79c-0.65-0.6-1.8-1.68-2.75-2.56
				c1.12-0.49,1.1-3.98,4.26-2.11c-1.11-2.67-0.89-5.38-4.29-5.67c-2.52-0.22-5.12-1.54-7.73-2.34c-0.32-0.1-0.71,0.08-1.03,0.24
				c-1.68,0.82-3.36,1.67-5.05,2.53c-0.04-0.33-0.07-0.66-0.11-0.99c-1.35-0.26-2.72-0.52-4.09-0.79c-1.17-0.22-2.35-0.56-3.53-0.64
				c-1.9-0.13-3.81-0.15-5.71-0.03c-0.15,0.01-0.02,1.54-0.02,2.46c-1.29,0.2-2.93,0.46-4.68,0.74c-0.61-2.71-2.65-4.75-4.55-3.26
				c-2.77,2.18-5.36,0.3-8.16,0.37c0.58-3.73-0.67-5.83-3.31-6.32c-1.69-0.31-3.37-0.9-5.08-1.38c0.43,4.24-4.62,4.48-5.61,7.58
				c-0.97,3.02-2.82,5.03-5.68,6.24c-0.71-1.02-1.41-2.04-2.12-3.06c-0.42,0.06-0.83,0.12-1.25,0.18c0.25,2.41,0.51,4.81,0.76,7.22
				C334.95,175.19,335.79,176.58,335.42,177.01z M399.44,182c-0.01,0.23-0.03,0.46-0.04,0.69c0,0,0,0,0,0
				c-0.1,0.45-0.19,0.9-0.29,1.36c0,0.04,0,0.09,0,0.13c0,0-0.04,0.03-0.04,0.03c0.01-0.05,0.02-0.11,0.03-0.16
				c-0.01-0.57-0.03-1.15-0.04-1.72C399.19,182.22,399.32,182.11,399.44,182z"/>
			<path class="st26" d="M275.39,160.71c0,0.01-0.01,0.01-0.01,0.02C275.41,160.75,275.42,160.75,275.39,160.71z"/>
			<path class="st26" d="M271.4,168.76c1.33-2.48,2.5-5.02,3.98-8.03c-0.14-0.08-0.9-0.73-0.77-1.04c1.53-3.55,3.27-6.98,4.94-10.42
				c0.4-0.82,0.83-1.63,1.25-2.44c-1.19-0.41-2.38-0.86-3.6-1.23c-0.5-0.15-1.05-0.13-2.02-0.23c0.74-1.02,1.23-1.7,2.34-3.24
				c-3.87-1.95-7.61-4.9-11.34-5.42c-3.56-0.49-7.1,1.65-10.78,2.67c-3.11-2.52-6.82-5.54-10.61-8.57c-0.38-0.3-1.02-0.58-1.49-0.6
				c-4.61-0.23-9.29-0.43-14.04-0.58c-6.78-0.21-11.84,1.32-11.74,8c-3.01-2.54-5.24-4.43-7.5-6.33c-3.92,2.97-3.56,5.23,0.63,7.32
				c0.2,1.67,0.37,3.09,0.55,4.52c0.25,0.88,0.5,1.75,0.75,2.63c-0.37-0.01-0.73-0.01-1.1-0.02c-0.1-0.72-0.21-1.43-0.31-2.15
				c-2.1-2.52-4.22-5.05-6.61-7.92c-0.81,1.57-1.71,3.33-2.66,5.18c-0.81-1.64-1.57-3.19-2.43-4.93c-1.39,0.59-2.6,1.1-3.95,1.67
				c-2.21-6.97-2.21-6.97-11.84-4.87c1.4,2.02,2.55,4.12,4.28,6c1.15,1.25,3.39,3.11,4.68,3.08c7.83-0.13,13.98,2.87,19.9,6.37
				c-4.93-0.7-10.24-4.23-14.94-1.05c0.14-2.28-0.75-3.49-4.37-2.55c-3.77,0.97-6.62,0.85-7.65-3.34c-0.29-1.2-5.74-3.76-6.43-3.43
				c-3.18,1.47-5.54,3.75-8.12,5.83c-0.19,0.16,0.44,0.83,0.64,1.17c2.02,0.05,3.85,0.1,6.05,0.15c-0.66,2.59-1.19,4.68-1.5,5.88
				c-4.18-1.64-8.91-3.51-13.71-5.4c1.12-0.48,2.24-0.95,3.35-1.42c-4.62-0.02-9.31-0.04-13.82-0.06c-1.77-1.26-3.62-2.58-5.48-3.9
				c-4.28,5.36-8.57,10.8-13.03,16.27c-2.3,2.82-5.98,5.06,1.54,8.61c2.55,1.2,1.9,5.87,2.01,8.9c0.02,0.64-3.02,1.12-4.66,1.67
				c-0.91,0.51-2.52,0.97-2.54,1.55c-0.01,0.59,1.51,1.32,2.42,1.94c1.05,0.73,3.23,1.91,3.1,2.03c-3.23,3.01,1.1,4.79,3.27,6.9
				c10.41,0.65,20.53,0.94,30.24,1.99c7.13,0.77,14.08,2.23,20.71,3.78c5.43,1.27,9.79,3.51,7.7,8.75
				c6.78-1.85,12.59-3.43,19.51-5.31c0.12,1.36,0.26,2.88,0.39,4.41c4.27,0.84,8.31-0.47,8.84-2.84c-1.31-0.64-2.62-1.28-3.95-1.92
				c1.89-0.73,3.76-1.45,6.33-2.44c-0.8,1.76-1.27,2.8-1.75,3.84c2.88,0.41,5.73,0.82,9.71,1.39c-3.61-7.44-6.88-14.16-10.41-21.43
				c-1.08,1.35-1.86,2.33-3.34,4.19c-1.03-2.86-1.77-4.92-2.43-6.74c2.57,0.29,5.75,1.34,7.14,0.61c1.25-0.66,0.59-3.26,0.66-3.85
				c2.23-0.92,4.08-1.69,6.16-2.54c-2.24-2.07-4.77-4.07-4.55-4.27c3.53-3.27-2.13-5.1-3.11-7.59c-0.38-0.96-1.07-2-1.98-2.77
				c-1.52-1.3-3.23-2.53-5.07-3.59c-2.22-1.28-4.67-2.34-7.04-3.51c2.47,0.78,4.89,1.77,7.36,2.24c1.4,0.27,3.34,0.07,4.27-0.55
				c3.2-2.13,6.03-4.51,8.96-6.77c0.61,0.33,1.22,0.66,1.83,1c0,1.29-0.31,2.6,0.08,3.87c0.41,1.33,1.28,3.49,2.31,3.75
				c2.39,0.61,5.34-0.28,5.58,3.02c0.15,2.1,0.81,4.26,0.6,6.29c-0.6,5.98-3.51,11.64-0.46,18.12c1.54,3.27,3.81,4.1,7.25,4.12
				c1.67-3.61,2.57-6.94,8.24-7.77c4.23-0.62,7.89-2.76,11.59-4.37C270.34,170.67,270.93,169.63,271.4,168.76z M193.82,152.26
				c0.54-1.77,2-3.3,3.08-4.91c0.69,2.33,1.37,4.67,2.18,7.41c-0.81,0.28-2.11,0.74-3.89,1.36
				C194.66,154.76,193.5,153.32,193.82,152.26z M206.38,185.01c-1.17,1.39-1.87,3.02-3.35,5.48c0-2.54,0-4.26,0-5.12
				c-4.79-3.08-9-5.78-15.13-9.71c4.26-2.13,7.23-3.5,9.98-5.02c3.35-1.85,5.23-1.12,6.69,1.87c0.27,0.54,2.33,0.75,3.59,1.1
				C211.07,177.93,209.32,181.51,206.38,185.01z M216.88,174.15c-0.91-0.24-2.21-0.87-2.38-1.43c-0.22-0.73,0.49-1.54,0.81-2.31
				c0.68,0.37,1.35,0.73,2.02,1.1c0.5,0.65,1.16,1.28,1.38,1.95C218.77,173.64,217.4,174.29,216.88,174.15z M216.7,162.66
				c0.95,1.64,1.59,2.73,2.22,3.82c0.57-0.13,1.15-0.25,1.72-0.38c-0.37,0.33-0.74,0.66-1.1,0.99c0,0,0,0,0,0c0,0,0,0,0,0
				c-3.7,2.11-7.45,4.24-11.26,6.39c1.57-3.05,2.94-6.16,4.83-9.04C213.75,163.47,215.77,163.1,216.7,162.66z M211.83,148.17
				c-0.03-0.02-0.05-0.04-0.05-0.04c0,0,0,0,0,0L211.83,148.17z M235.27,143.39c-0.27-0.39-0.53-0.78-0.8-1.18
				c2.35-1.04,4.69-2.08,7.27-3.23c0.27,1.66,0.48,2.91,0.71,4.27C240.04,143.31,237.67,143.35,235.27,143.39z"/>
			<path class="st27" d="M373.34,226.65c0.25-0.33,0.5-0.66,0.76-0.99c-0.89-0.3-1.78-0.6-2.74-0.92c0.45-0.42,0.88-0.76,1.27-1.03
				c0.26-0.18,0.51-0.32,0.74-0.42c0.47-0.21,0.89-0.28,1.28-0.22c0.68,0.11,1.24,0.63,1.75,1.55v0c0.31,0.37,0.84,1.08,0.89,1.05
				c2.04-1.38,4.47-2.45,5.88-4.32c2.18-2.91,2.2-6.25-0.53-8.88c0.67-0.91,1.16-1.58,1.66-2.25c0.32-1.43,0.44-2.97,1.02-4.27
				c0.82-1.84,1.97-3.5,2.55-4.49c-2.49-2.13-4.6-3.44-6.03-5.32c-1.17-1.53-1.99-2.14-2.88-1.73c-0.11,0.23-0.21,0.45-0.31,0.66
				c-0.2,0.42-0.38,0.81-0.56,1.17c-0.11,0.23-0.21,0.44-0.31,0.65c-0.3,0.62-0.56,1.18-0.83,1.74c0.21,0.24,0.39,0.5,0.61,0.72
				c0.07,0.07,0.15,0.14,0.23,0.21c0.44,0.35,1.22,0.54,1.35,0.94c0.13,0.41-0.25,1.12-0.61,1.48c-1.41,1.36-2.84,2.75-4.42,3.95
				c-2.69,2.04-7.28,1.22-10.07-0.54c-2.19-1.38-4.33-2.88-6.53-4.36c-1.44,1.55-2.89,3.11-4.35,4.68c0.24,0.2,0.47,0.4,0.71,0.59
				c-1.77,0.39-3.56,0.78-5.37,1.17c-0.92,1.29-1.84,2.59-2.76,3.9c0.44,0.02,0.87,0.05,1.31,0.07c1-0.04,2-0.09,2.99-0.13
				c3.5,1.07,4.71,2.04,4.8,4.09c0.01,0.29,0,0.61-0.03,0.95c0.24,0.42,0.47,0.84,0.71,1.26c2.23,0.62,4.44,1.24,6.63,1.85
				c2.05-0.4,4.09-0.8,6.58-1.29c-1.36,2.94-2.35,5.06-3.35,7.2c0.66,1.23,1.31,2.46,2,3.75c0.54-0.16,1.22-0.36,1.9-0.55
				c0.24-1.29,0.47-2.57,0.72-3.93C371.43,225.5,372.39,226.07,373.34,226.65z"/>
			<path class="st28" d="M196.66,202.49c2.1-5.24-2.26-7.48-7.7-8.75c-6.63-1.55-13.57-3.01-20.71-3.78
				c-9.71-1.04-19.83-1.34-30.24-1.99c-1.76,3.96-4.7,7.87-5.01,11.97c-0.36,4.84-0.45,10.29,8,13.24
				c12.24,0.28,22.63,2.74,30.45,8.72c2.23-4.94,8.98-2.06,13.25-3.62c6.23-2.28,5.54,4.68,11.14,5.2
				c-1.31-4.85-0.15-8.62,6.33-10.54c0.93-0.28,1.81-1.3,2.01-2.07c1.33-5.21,7.64-6.72,12.39-9.28c-0.14-1.53-0.27-3.05-0.39-4.41
				C209.25,199.07,203.44,200.65,196.66,202.49z"/>
			<path class="st28" d="M311.06,183.19c0.31,1.55-0.09,2.83-0.96,4.21c0.48,1.61,0.95,3.21,1.43,4.82
				c0.92,1.42,1.84,2.83,2.76,4.24c1.04,0.67,2.08,1.33,3.13,2c1.23,0.79,2.48,1.59,3.76,2.41c-0.09,0.15-0.18,0.32-0.28,0.49
				c-0.3,0.52-0.66,1.13-1.01,1.75c0,0,0,0,0,0c1.11,1.51,2.21,3.01,3.45,4.7c-3.16-0.07-5.97-0.02-8.78-0.28
				c-0.69-0.06-1.3-1.15-1.95-1.76c-0.31,0.2-0.63,0.4-0.94,0.59c0.06,0.29,0.06,0.59,0.02,0.89c-0.08,0.6-0.33,1.21-0.55,1.82
				c0,0.01-0.01,0.03-0.01,0.04c-0.11,0.3-0.22,0.61-0.3,0.9c-0.08,0.3-0.13,0.6-0.13,0.89c0,0.15,0.01,0.3,0.04,0.44
				c0.14,0.73,0.67,1.42,1.95,2.02c2.17-0.04,4.31-0.09,6.44-0.13c0,0,0,0,0,0c1.12-0.85,2.29-1.32,3.5-1.44
				c1.21-0.12,2.46,0.12,3.75,0.69v0c0,0,0,0,0,0c0-0.7,0-1.4,0-2.4c0-0.33,0-0.7,0-1.11c0.43,0.14,0.83,0.28,1.22,0.41
				c1.17,0.39,2.2,0.73,3.22,1.08c-0.34-1.18-0.76-2.35-0.99-3.55c-0.22-1.14-0.23-2.3-0.34-3.45c-0.76-1.37-2.51-3.23-2.08-4.04
				c0.95-1.75,3-2.87,5.56-1.53c0.5,0.26,1.23,0.14,1.85,0.19c3.43,0.09,2.1-1.8,1.47-3.39c0.67-1.67,0.86-3.33,0.67-4.98
				c-0.02-0.21-0.05-0.41-0.09-0.62c-0.11-0.62-0.26-1.23-0.47-1.85c-0.27-0.82-0.63-1.64-1.05-2.46c-1.42-2.74-2.1-5.29,0.08-7.76
				c0.37-0.42-0.47-1.81-0.75-2.76c-9.13-2.05-10.49-4.93-5.02-10.84c0.15-0.17,0.43-0.26,0.51-0.46c0.32-0.83,0.58-1.68,0.99-2.9
				c-5.78,1.71-6.02,2.09-7.66,8.3c-0.62,2.32,0.33,3.57,2.74,4.44c1.32,0.48,2.54,1.23,3.8,1.85c-0.07,0.33-0.14,0.65-0.21,0.98
				c-3.39,0.04-6.83,0.07-10.3,0.11c0.11,0.68,0.26,1.57,0.43,2.66c-1.9-1.34-3.42-2.71-5.21-3.6c-1.92-0.96-4.1-1.46-6.19-2.17
				c0.3,1.5,0.47,3.03,0.73,4.53c0.26,1.5,0.6,2.98,1.23,4.37C310.78,182.13,310.96,182.68,311.06,183.19z"/>
			<path class="st29" d="M403.78,257.1c-1.67-3.59-3.86-6.91-5.98-10.56c-0.4,1.68-0.77,3.25-1.15,4.83
				c-0.28,0.1-0.56,0.19-0.85,0.29c-0.57-1.32-1.15-2.65-2.02-4.66c-1.24,0.69-2.74,1.53-4.25,2.39c-0.2,0.11-0.42,0.48-0.54,0.44
				c-2.31-0.73-3.21,1.43-4.58,2.69c-0.76,0.7-1.51,1.56-2.41,1.95c-2.26,0.99-4.41,1.86-3.6,5.09c0.3,1.2,0.26,2.52,0.35,3.79
				c0.1,1.36,0.17,2.72,0.25,4.07c1.38-0.4,2.75-0.78,4.11-1.21c0.47-0.15,0.9-0.52,1.37-0.64c1.92-0.48,4.03-1.53,5.65-1.12
				c1.25,0.32,2.09,2.35,2.81,3.81c0.98,1.96,3.16,2.63,5.06,1.34c2.85-1.94,3.71-5.17,4.92-8.09
				C403.51,260.13,404.25,258.11,403.78,257.1z"/>
			<path class="st30" d="M200.72,250.41c1.88,0.73,3.74,1.46,5.56,2.17c-5.31,3.81-4.99,4.89,2.15,7.64
				c1.92-0.93,3.7-1.79,4.89-2.37c3.99,2.27,7.33,4.17,10.64,6.04c0.81,0.46,1.4,0.93,1.73,1.4c0.73,1.05,0.19,2.15-2.04,3.35
				c1.14,0.81,2.59,1.49,3.56,2.35c0.32,0.29,0.59,0.59,0.78,0.93c0.56,1.02-0.57,2.7-0.95,4.09c0,0,0,0,0,0c0,0,0,0,0,0
				c-0.39,0.57-0.78,1.13-1.17,1.7c2.36,0.95,4.71,1.89,7.03,2.82c1.44-1.91,4.01-3.92,4.04-5.67c0.05-3.25,2.7-4.49,5.49-5.31
				c3.85-1.14,4.08-3.24,4.71-5.65c0.63-2.42,1.41-5.02,3.09-7.09c2.36-2.9,2.44-4.82-1.39-6.15c-1.81-0.63-3.76-1.1-5.74-1.49
				c-4.01-0.79-8.35-1.11-10.1-4.81c-0.33-0.69-2.22-0.9-3.4-1.33c-0.55,0.56-1.06,1.28-1.59,1.92c-0.18,0.21-0.36,0.42-0.54,0.6
				c-0.3,0.29-0.6,0.54-0.93,0.7c-0.16,0.08-0.33,0.14-0.51,0.17c-1.36,0.25-3.15-1.26-4.77-2c-1.42,0.87-2.72,1.92-4.3,2.58
				c-1.65,0.7-3.58,1.03-5.93,1.67c-0.34-1.86-0.6-3.25-0.9-4.91c-4.52-0.89-9.38-1.99-5.65-6.93c-2.07,1.05-4.17,2.11-6.27,3.17
				c-0.86,0.65-1.73,1.31-2.6,1.97c-0.02,2.01-0.04,4.02-0.06,6.03C197.27,248.82,199,249.61,200.72,250.41z"/>
			<path class="st28" d="M136.43,173.88c-0.11-3.04,0.53-7.7-2.01-8.9c-7.53-3.55-3.84-5.79-1.54-8.61
				c4.46-5.47,8.75-10.92,13.03-16.27c-4.54-3.01-9.07-6.1-13.85-9.12c-1.27-0.8-3.39-1.82-4.62-1.72
				c-7.12,0.57-14.24,1.46-20.83,2.18c0.36,2.89,0.64,5.11,0.76,6.04c-4.49,0.27-8.04,0.48-11.63,0.69c1.4,2.21,2.79,4.42,3.97,6.29
				c-4.72,2.1-10.54,4.68-15.69,6.97c3.65,3.17,6.99,6.05,10.68,9.25c-9.7,2.09-18.13,3.91-26.75,5.78
				c0.43,0.51,0.86,1.03,1.28,1.54c8.03-1.22,15.73-2.74,23.6-3.5c6.73-0.65,12.78-1.35,18.06-3.88c1.99-0.96,7.45,0.17,10.89,1.12
				c10.44,2.86,6.09,9.38,9.98,13.82C133.41,175,136.46,174.52,136.43,173.88z"/>
			<path class="st30" d="M288.45,212C288.45,212,288.45,212,288.45,212c0,0-0.01,0.01-0.02,0.01L288.45,212z"/>
			<path class="st30" d="M282.2,228.53c0-0.12,0-0.25,0-0.39c-0.04-1.21-0.34-2.88-0.77-5.17c1.34,0.1,2.54,0.36,3.63,0.73
				c0.54,0.18,1.06,0.4,1.56,0.63c2.47,1.17,4.43,2.91,6.42,4.56c2.36-1.55,4.69-3.09,7.01-4.61c-1.38-0.82-2.12-1.69-2.43-2.6
				c-0.31-0.91-0.2-1.86,0.09-2.82c0.35-1.15,0.98-2.32,1.46-3.47c-0.67-2.84-2.27-4.24-5.96-3.33c-1.46,0.36-3.19,0.01-4.81-0.02
				c0,0,0,0,0-0.01c-0.55,0.27-1.1,0.53-1.65,0.8l-0.22-0.04c0.76,1.68,0.87,3.05,0.37,4.15c-0.14,0.31-0.34,0.6-0.58,0.87
				c-0.36,0.4-0.84,0.76-1.43,1.07c-0.78,0.42-1.76,0.75-2.94,1.01c-0.19,0.04-0.36,0.12-0.52,0.23c-0.17,0.11-0.33,0.25-0.49,0.4
				c-0.3,0.29-0.59,0.61-0.9,0.86c-0.72,0.74-1.44,1.49-2.23,2.31c-0.09,0.09-0.18,0.19-0.27,0.28c-0.39,0.4-0.8,0.83-1.24,1.28
				c-0.48,0.5-1,1.04-1.57,1.62c-0.56,0.01-2.27,0.04-3.98,0.06c0.26,1.3,0.53,2.61,0.79,3.91c1.24,0.24,2.48,0.48,3.71,0.72
				c0.08,0.02,0.16,0.03,0.24,0.05C280.52,231.43,282.16,231.26,282.2,228.53z"/>
			<path class="st29" d="M358.18,220.77c-0.15-0.03-0.3-0.07-0.43-0.12c-0.63-0.22-1.13-0.59-1.51-1.13
				c-0.35-0.5-0.59-1.13-0.72-1.91c-0.24-0.42-0.47-0.84-0.71-1.26c-1.35,0.19-2.71,0.38-4.08,0.57c-1.23,2.24-2.47,4.49-3.72,6.76
				c1.38,2.12,3.95,3.11,4.81,5.87c0.75,2.39,1.11,5.77,4.97,6.01c0.62,0.04,1.17,0.66,1.75,1.01c-0.01-0.82,0.04-1.65-0.05-2.46
				c-0.17-1.52-1.15-3.52-0.49-4.43c1.44-1.98,3.67-3.39,5.56-5.01c-0.43-1.44-0.86-2.88-1.29-4.33
				C360.59,220.86,359.24,221,358.18,220.77z"/>
			<path class="st26" d="M225.87,277.72C225.87,277.72,225.87,277.72,225.87,277.72c0.39-0.57,0.78-1.14,1.17-1.7c0,0,0,0,0,0
				c-2.7-1.49-5.43-2.99-8.18-4.5c-1.97,0.5-3.95,1-5.94,1.51c-0.43,3.23-1.03,6.47-1.45,9.71c-0.25,1.94-0.44,3.88-0.49,5.81
				c-0.13,5.11,0.41,10.18,1.42,15.06c0.23,1.12,3.57,1.44,5.46,2.12c0.29-2.73,0.07-5.49,1.01-8.18c1.11-3.18,1.09-7.31,5.78-9
				c3.71-1.33,3.72-2.8,3.69-4.84C223.1,283.18,224.56,280.42,225.87,277.72z"/>
			<path class="st25" d="M186.38,227.07c-0.02,0.02-0.03,0.04-0.05,0.06c0.02,0,0.04-0.01,0.06-0.01
				C186.39,227.11,186.38,227.07,186.38,227.07z"/>
			<path class="st25" d="M141.01,213.18c0.43,5.42,3.63,9.93,10.24,13.76c0-1.5,0-2.62,0-4.84c2.12,2.34,4.35,3.7,4.53,5.19
				c0.66,5.27,7.24,5.51,12.21,6.95c2.75,0.8,5.78,1.15,8.65,1.7c1.94-1.38,3.87-2.74,5.78-4.11c1.3-1.58,2.6-3.15,3.9-4.71
				c-2.12,0.37-4.28,0.69-6.39,1.15c-2.46,0.54-4.89,1.21-7.36,1.84c-0.68-1.85-1.55-3.69-1.97-5.58c-0.18-0.82,0.54-1.75,0.85-2.63
				C163.64,215.92,153.25,213.46,141.01,213.18z"/>
			<path class="st29" d="M296.73,201.5c1.36,0.07,2.71,0.15,4.05,0.22c0.03-1.44-0.06-2.91,0.03-4.34c0.03-0.48,0.07-0.95,0.15-1.42
				c0.05-0.29,0.14-0.57,0.26-0.85c0.36-0.83,0.97-1.62,1.4-2.43c2.76-1.69-0.48-3.98,0.34-5.87c0.5-1.15,0.91-2.34,1.35-3.51
				c0,0,0,0,0,0c0.55-0.59,0.99-1.14,1.34-1.67c0.09-0.14,0.18-0.27,0.26-0.41c0.16-0.27,0.3-0.53,0.4-0.79
				c0.1-0.23,0.18-0.47,0.23-0.69c0.4-1.78-0.6-3.39-3.08-5.53c-1.16,0.14-2.32,0.29-3.5,0.43c0,0,0,0,0,0
				c-0.37,0.92-0.74,1.84-1.12,2.77c0,0-0.24-0.11-0.24-0.11c-0.72,4.32-1.44,8.65-2.16,13c-1.48,2.16-2.97,4.32-4.47,6.5
				c0.92,1.54,1.84,3.07,2.76,4.6C295.41,201.43,296.07,201.47,296.73,201.5z"/>
			<path class="st29" d="M299.98,174.62c0,0-0.03,0.02-0.03,0.02C299.96,174.64,299.97,174.64,299.98,174.62
				C299.98,174.63,299.98,174.63,299.98,174.62z"/>
			<path class="st31" d="M218.85,271.51c1.03-1.55,0.45-4.68,4.8-2.87c2.23-1.2,2.76-2.3,2.04-3.35c-0.33-0.48-0.92-0.94-1.73-1.4
				c-3.31-1.87-6.65-3.77-10.64-6.04c-1.19,0.58-2.96,1.44-4.89,2.37c-7.14-2.75-7.45-3.82-2.15-7.64
				c-1.81-0.71-3.68-1.44-5.56-2.17c-2.85,3.48-3.92,4.51-5.67,4.11c-0.59-0.13-1.25-0.43-2.08-0.84c-0.38,1.08-1.54,2.86-1.01,3.15
				c6.11,3.38,6.85,10.63,16.15,11.28c1.61,1.65,3.21,3.29,4.8,4.92C214.9,272.51,216.88,272.01,218.85,271.51z"/>
			<path class="st27" d="M341.32,213.5c-2.42-0.55-4.87-1.1-7.34-1.67c-1.05-0.46-2.11-0.93-3.17-1.4
				c-1.02-0.34-2.05-0.69-3.22-1.08c-0.39-0.13-0.8-0.27-1.22-0.41c0,0.41,0,0.78,0,1.11c0,1,0,1.7,0,2.4c0,0,0,0,0,0
				c1.57,2.16,3.13,4.31,4.68,6.45c1.73,1.38,3.45,2.76,5.16,4.12c0,0,0,0,0,0c0.78-0.22,1.55-0.43,2.32-0.65
				c1.45-0.05,2.88-0.1,4.31-0.14c-0.2-1.12-0.41-2.23-0.61-3.35C341.93,217.1,341.63,215.31,341.32,213.5z"/>
			<path class="st31" d="M301.75,236.03c0.28,0.52,0.56,1.06,0.85,1.6c1.99-1.37,3.97-2.73,5.93-4.07h0
				c0.04-0.24,0.04-0.5,0.14-0.72c1.01-2.09,1.44-3.7,1.2-4.93c-0.4-2.06-2.65-3.1-7.18-3.65c0.65,1.62,0.97,3.02,0.96,4.22
				c0,0.06-0.01,0.11-0.01,0.16c-0.01,0.45-0.08,0.88-0.19,1.27c-0.15,0.54-0.4,1.03-0.74,1.46c-0.34,0.43-0.77,0.8-1.3,1.11
				c-1.5,0.88-3.75,1.31-6.79,1.28c-0.21,0-0.42,0.02-0.62,0.06c-0.63,0.11-1.27,0.36-1.9,0.51c-0.58,0.72-1.16,1.44-1.74,2.16
				c-0.06,0.07-0.11,0.14-0.17,0.21h0c-0.26,0.73-0.52,1.47-0.78,2.21c1.79,0.66,3.57,1.31,5.34,1.96c2.14-2.2,4.27-4.38,6.19-6.35
				C301.2,234.99,301.47,235.5,301.75,236.03z"/>
			<path class="st27" d="M288.45,212L288.45,212c-0.02,0.01-0.04,0.02-0.06,0.03c0,0,0,0,0,0.01c0,0,0.02-0.01,0.04-0.02
				C288.44,212.01,288.45,212,288.45,212z"/>
			<path class="st27" d="M286.74,212.83c0.55-0.27,1.1-0.53,1.65-0.8c0.11-3.52,1.62-5.97,6.28-5.97c0.02-1.55,0.05-3.11,0.07-4.66
				c-0.92-1.53-1.83-3.06-2.76-4.6c-0.55-0.28-1.1-0.56-1.65-0.85c-1.25,0.75-2.51,1.5-3.77,2.26l0,0
				c-0.87,0.74-1.75,1.48-2.66,2.25c0.97,1.15,1.91,2.25,3.62,4.27c-2.56-0.07-4.13-0.35-5.52-0.07c-1.01,0.2-1.78,1.15-2.66,1.77
				c1.04,0.12,2.07,0.24,3.57,0.41c-0.71,1.91-1.31,3.52-1.91,5.14c0.29,0.27,0.59,0.55,0.88,0.82c1.56,0,3.1-0.01,4.64-0.01
				C286.52,212.79,286.74,212.83,286.74,212.83z"/>
			<path class="st32" d="M212.38,303.59c-1.01-4.88-1.55-9.95-1.42-15.06c0.05-1.92,0.24-3.86,0.49-5.81
				c0.42-3.24,1.02-6.48,1.45-9.71c-1.59-1.63-3.19-3.27-4.8-4.92c-0.39,8.26-0.97,16.55-1.07,24.81c-0.03,2.31,1.49,4.4,1.98,6.66
				c0.64,2.98,0.17,6.4,1.74,8.92c0.94,1.51,4.81,1.65,7.33,2.39c-0.08-1.72-0.16-3.45-0.24-5.17
				C215.95,305.03,212.62,304.71,212.38,303.59z"/>
			<path class="st26" d="M316.03,261.82c-0.56,0-1.12,0-1.68-0.01c-2.45,1.25-4.92,2.52-7.43,3.8c0,0,0,0,0,0
				c0.09,2.06-0.97,2.57-2.33,2.68c-0.62,0.05-1.3,0.01-1.97,0c0.58,1.3,1.02,2.69,1.81,3.86c0.45,0.68,1.44,1.5,2.23,1.44
				c6.29-0.5,10-3.53,11.63-9.16c-0.49-0.87-0.99-1.74-1.49-2.61C316.54,261.82,316.28,261.82,316.03,261.82z"/>
			<path class="st31" d="M393.03,205.22c1.08,3.38-0.16,5.04-2.73,6.56c-1.73,1.02-2.52,2.68-0.92,4.2
				c1.78-1.13,3.38-2.12,4.93-3.15c0.5-0.33,1.35-0.84,1.31-1.18c-0.22-1.96-0.67-3.9-0.94-5.34c0.76-1.23,1.4-2.26,2.04-3.29
				c0,0,0,0,0,0c0.21-0.39,0.43-0.78,0.64-1.18c-0.23-0.11-0.65-0.33-0.67-0.3c-0.18,0.31-0.28,0.68-0.41,1.03
				c-0.92-0.28-1.85-0.55-2.79-0.84c0.65-2.43-0.75-8.11-2.28-9.58c-0.22-0.21-0.73-0.06-1.11-0.08c0.4,1.41,0.81,2.81,1.21,4.21
				C391.86,199.28,392.12,202.36,393.03,205.22z"/>
			<polygon class="st25" points="370.02,236.94 370,236.89 370,236.89 370.02,236.94 370.02,236.94 			"/>
			<path class="st25" d="M371.82,237.46c-0.04-1.22-0.18-2.44-0.07-3.65c0.07-0.76,0.52-1.49,0.8-2.23c1.14-0.9,2.27-1.79,3.4-2.68
				c0.29,0.27,0.58,0.54,0.87,0.82c-0.16,1.06-0.32,2.12-0.47,3.19c2.26-1.46,1.8-3.02,0.59-4.94c-0.55-0.87-0.37-2.22-0.53-3.35v0
				c-0.51-0.92-1.08-1.45-1.75-1.55c-0.39-0.06-0.81,0.01-1.28,0.22c-0.24,0.11-0.48,0.25-0.74,0.42c-0.39,0.26-0.81,0.61-1.27,1.03
				c0.96,0.32,1.85,0.62,2.74,0.92c-0.25,0.33-0.5,0.66-0.76,0.99c-0.95-0.57-1.91-1.15-3.34-2.01c-0.25,1.36-0.49,2.65-0.72,3.93
				c0.25,2.78,0.49,5.56,0.74,8.33c0.41,0.19,0.81,0.38,1.22,0.57C371.43,237.47,371.62,237.47,371.82,237.46z"/>
			<path class="st32" d="M324.74,228.21c-1.05,0.75-2.34,1.35-3.11,2.3c-1.04,1.29-1.69,2.84-2.5,4.28
				c-0.12,1.43,0.32,2.53,1.33,3.3c0.01,0,0.01,0.01,0.01,0.01c1.3,0.99,3.53,1.42,6.64,1.31c0.31-0.24,0.62-0.48,0.9-0.7
				c0.12-0.09,0.23-0.18,0.33-0.26c0.13-0.1,0.26-0.2,0.37-0.29c0.25-0.19,0.42-0.33,0.5-0.39c-0.52-1.98-0.89-3.39-1.27-4.8
				c-0.03-0.16-0.03-0.33,0.01-0.49c-0.33-0.95-0.67-1.91-1-2.86C326.21,229.15,325.48,228.68,324.74,228.21z"/>
			<path class="st29" d="M310.2,252.88c-1.05-4.47-5.8-3.2-9.24-4.08c-0.32,0.1-0.65,0.2-0.97,0.3c0.5,3.06-0.11,6.04-1.6,8.98
				c3.44-0.06,6.83-0.11,10.17-0.17C309.12,256.23,309.66,254.55,310.2,252.88z"/>
			<path class="st31" d="M210.11,243.77c0.3,1.66,0.56,3.05,0.9,4.91c2.36-0.64,4.28-0.97,5.93-1.67c1.58-0.67,2.89-1.71,4.3-2.58
				c0.49-0.96,0.98-1.92,1.46-2.87c-3.35-3.81-11.88-6.06-18.25-4.71C200.73,241.78,205.58,242.88,210.11,243.77z"/>
			<path class="st31" d="M320.47,238.1c-0.01,0-0.01-0.01-0.01-0.01c-1.01-0.77-1.45-1.87-1.33-3.3c-2.62,0.33-5.27,0.67-7.95,1.02
				c-0.26,0.03-0.52,0.07-0.78,0.1c0.51,0.9,1.02,1.81,1.52,2.71c1.68,0.45,3.35,0.89,5,1.33c1.7-0.02,2.74-0.03,3.3,0.2
				c0.08,0.03,0.15,0.07,0.21,0.11c0.63,0.45,0.3,1.49-0.46,3.89c1.56,0.87,3.12,1.73,4.66,2.58c0.84-1.22,1.67-2.43,2.5-3.63
				c-0.01-1.23-0.01-2.45-0.02-3.68C323.99,239.52,321.77,239.08,320.47,238.1z"/>
			<path class="st26" d="M306.55,179.74c-0.05,0.23-0.13,0.46-0.23,0.69c-0.11,0.26-0.24,0.52-0.4,0.79
				c-0.08,0.13-0.17,0.27-0.26,0.41c-0.35,0.52-0.8,1.07-1.34,1.67c0,0,0,0,0,0c-0.11,1.89-0.21,3.79,2.54,4.62
				c1.09-0.17,2.17-0.35,3.25-0.52c0,0,0,0,0,0c0.87-1.37,1.27-2.65,0.96-4.21c-0.1-0.52-0.29-1.07-0.56-1.66
				c-0.63-1.39-0.97-2.87-1.23-4.37c-0.26-1.51-0.43-3.04-0.73-4.53c-1.69,0.08-3.39,0.17-5.11,0.25c0.01,0.44,0.02,0.89,0.03,1.33
				C305.95,176.35,306.95,177.97,306.55,179.74z"/>
			<path class="st32" d="M306.92,265.62C306.92,265.62,306.92,265.62,306.92,265.62C306.92,265.62,306.92,265.62,306.92,265.62
				c1.1-2.54,2.2-5.08,3.3-7.6c-0.55-0.03-1.1-0.07-1.65-0.1c-3.34,0.05-6.73,0.11-10.17,0.16c1.42,3.42,2.82,6.83,4.22,10.21
				c0.67,0.01,1.35,0.05,1.97,0C305.95,268.19,307.01,267.67,306.92,265.62z"/>
			<path class="st30" d="M376.73,240.41c0.64,2.18,2.22,2.98,4.46,2.62c0.65-1.15,1.29-2.27,1.87-3.29
				c0.18,1.58,0.35,3.07,0.51,4.57c0.33,0.07,0.67,0.14,1,0.21c0.97-1.84,1.93-3.68,2.93-5.58c-1.52-1.01-4.36,1.35-5.03-1.9
				c-0.67,0.74-1.25,1.89-2.05,2.12c-0.32,0.1-0.67,0.07-1.03-0.01c-0.52-0.12-1.07-0.35-1.6-0.51c-0.08-0.02-0.17-0.05-0.25-0.07
				C377.25,239.19,376.59,239.94,376.73,240.41z"/>
			<path class="st25" d="M410.09,265.49c-0.6,2.46,0.2,4.8-2.27,6.67c-1.92,1.45-3.35,3.83-5.03,5.82c1.23,1.92,2.16,0.97,3.1-0.31
				c1.09-1.5,2.05-3.16,3.31-4.41C412.85,269.63,412.91,269.61,410.09,265.49z"/>
			<path class="st29" d="M316.75,255.27c0.77,0.45,1.35,0.91,1.75,1.38c0.13,0.16,0.24,0.32,0.34,0.48
				c0.15,0.26,0.24,0.52,0.29,0.79c0.04,0.26,0.04,0.52-0.01,0.78c-0.03,0.15-0.06,0.3-0.12,0.45c-0.3,0.84-1.05,1.73-2.21,2.66
				c0.5,0.87,0.99,1.74,1.49,2.61c0.81-1.37,1.6-2.75,2.41-4.11c0.41-0.69,0.69-1.62,1.32-2c3.14-1.89,4.09-4.34,3.4-7.36
				c-1.77,0.35-3.56,0.71-5.36,1.07C318.96,253.11,317.85,254.19,316.75,255.27z"/>
			<path class="st31" d="M299.85,160.94c0.12-1.03,0.23-2.05,0.25-2.24c1.4,0.36,2.67,0.68,3.94,1.01c0.11-0.37,0.22-0.74,0.32-1.1
				c-1.26-1.07-2.52-2.14-3.77-3.2c1.22,0.01,2.44,0.02,4.21,0.03c-0.61-1.18-1.14-2.73-1.46-2.74c-3.12-0.11-6.26,0.04-10.67,0.15
				c2.47,3.57,4.19,6.06,5.9,8.54C299,161.24,299.43,161.09,299.85,160.94z"/>
			<path class="st32" d="M403.98,239.97c-1.09,2.57-2.42,3.31-4.32,1.45c-0.54-0.52-1.49-0.55-2.26-0.81
				c-0.17,1.6-0.35,3.2-0.52,4.8c2.14,0.33,4.25,0.66,6.95,1.08c-0.82-1.15-1.36-1.92-2.28-3.22c1.96-0.12,3.43-0.22,5.1-0.32
				C405.85,242.04,405.02,241.12,403.98,239.97z"/>
			<path class="st30" d="M376.09,242.95c-1.48-1.91-2.87-3.69-4.27-5.49c-0.19,0-0.39,0-0.58,0.01c-0.41-0.19-0.81-0.38-1.22-0.57
				c-0.01,0-0.01-0.01-0.02-0.01l0,0c0,0,0.02,0.05,0.02,0.05c0,0,0,0,0,0c0,0,0,0,0,0h0c-0.98-0.17-1.96-0.33-3.17-0.54
				c1.32,4.52,3.85,7.16,7.54,8.63c0.24-0.26,0.48-0.52,0.71-0.77C375.57,243.64,376.04,243.02,376.09,242.95z"/>
			<path class="st27" d="M316.15,244.38c0,1.68,0,3.36,0,5.04c1.31,0.88,2.61,1.75,3.91,2.61c0,0,0,0,0,0
				c1.8-0.36,3.58-0.72,5.36-1.07c-0.26-1.41-0.52-2.83-0.78-4.24c-1.54-0.85-3.09-1.72-4.66-2.58
				C318.7,244.22,317.43,244.3,316.15,244.38z"/>
			<path class="st28" d="M301.76,243.77c-0.04-0.29,0.03-0.6,0.15-0.92c0.06-0.15,0.13-0.3,0.2-0.46c0.18-0.38,0.39-0.77,0.54-1.14
				c-0.02-1.21-0.03-2.42-0.05-3.63c-0.28-0.54-0.57-1.07-0.85-1.6c-0.28-0.53-0.55-1.04-0.81-1.53c-1.92,1.97-4.04,4.15-6.19,6.35
				c0.68,1.16,1.41,2.29,2.03,3.46c0.57,1.07,1.02,2.18,1.53,3.27C300.82,247.19,302.07,246.1,301.76,243.77z"/>
			<path class="st26" d="M328.71,238.16c-0.11,0.08-0.23,0.18-0.37,0.29c-0.11,0.08-0.22,0.17-0.33,0.26
				c-0.28,0.22-0.59,0.46-0.9,0.7c0.01,1.23,0.01,2.45,0.02,3.68c6.35-3.61,8.23-6.38,7.08-9.51c-2.27-0.22-4.26-0.41-6.27-0.6
				c0.37,1.41,0.74,2.82,1.27,4.8C329.13,237.83,328.95,237.97,328.71,238.16z"/>
			<path class="st32" d="M327.49,263.34c3.67-0.54,7.25-8.51,5.39-11.14C327.14,254.74,326.43,258.75,327.49,263.34z"/>
			<path class="st29" d="M290.34,195.95c-1.44-2.12-2.76-4.31-4.4-6.35c-0.54-0.67-1.88-1.15-2.89-1.26
				c-0.58-0.06-1.69,0.73-1.76,1.26c-0.23,1.72-0.09,3.49-0.09,4.83c0.8,1.44,1.48,2.68,2.35,4.24c0.46-0.07,1.74-0.27,3.01-0.46
				l0,0C287.83,197.45,289.08,196.7,290.34,195.95z"/>
			<path class="st25" d="M350.04,211.31c-0.99,0.04-1.99,0.09-2.99,0.13c0.36,1.15,1.34,2.55,0.97,3.41
				c-0.99,2.28-2.56,4.35-5.79,4.05c0.2,1.12,0.41,2.23,0.61,3.35c1.4,0.48,2.79,0.96,4.17,1.43c1.25-2.27,2.49-4.52,3.72-6.76
				C350.5,215.05,350.27,213.18,350.04,211.31z"/>
			<path class="st26" d="M280.93,220.52c0.16-0.15,0.32-0.29,0.49-0.4c0.17-0.11,0.34-0.19,0.52-0.23c1.17-0.26,2.15-0.59,2.94-1.01
				c0.59-0.31,1.06-0.67,1.43-1.07c0.24-0.27,0.44-0.56,0.58-0.87c0.5-1.09,0.39-2.47-0.37-4.15v0c-1.54,0-3.08,0.01-4.64,0.01
				c-2.18,2.56-4.38,5.14-6.6,7.75c1.59,0.28,3.17,0.56,4.74,0.84C280.34,221.13,280.63,220.8,280.93,220.52z"/>
			<path class="st27" d="M388.39,231.41c-1.07-1.59-1.98-3.31-3.34-5.59c-0.57,2.86-1.05,5.27-1.62,8.18
				c0.83-0.71,1.54-1.31,2.18-1.86c0.53,1.45,1.02,2.82,1.57,4.32C389.75,234.66,389.57,233.15,388.39,231.41z"/>
			<path class="st27" d="M293.42,182.34c-2.21,1.47-2.64,3.45-1.61,5.27c0.69,1.22,3.05,1.82,4.64,2.69c0.72-4.34,1.44-8.68,2.16-13
				C296.92,178.99,295.47,180.98,293.42,182.34z"/>
			<path class="st28" d="M348.5,156.01c0.01,0.02,0.01,0.04,0.02,0.06c0,0,0,0,0,0c0,0,0,0,0,0l0,0c0,0,0.05-0.04,0.05-0.04
				C348.55,156.02,348.52,156.02,348.5,156.01z"/>
			<path class="st28" d="M347.38,153.37c-2.68-1.7-5.57-3.13-9.39-5.2c0.51,1.98,0.53,4.27,1.29,4.63c2.99,1.41,6.17,2.21,9.22,3.21
				C348.15,155.09,348.03,153.78,347.38,153.37z"/>
			<path class="st30" d="M362.14,219.47c0.04,0.29,0.09,0.58,0.13,0.87c0,0,0,0,0,0c0.43,1.45,0.86,2.89,1.29,4.33
				c0.61,0.24,1.21,0.47,1.82,0.71c0.99-2.14,1.98-4.26,3.35-7.2C366.23,218.66,364.2,219.06,362.14,219.47z"/>
			<path class="st25" d="M326.95,229.62c0.33,0.96,0.66,1.91,1,2.86c3.21-0.09,6.2-0.58,8.36-3.08c-0.26-0.94-0.53-1.88-0.79-2.82
				C332.7,227.58,329.84,228.59,326.95,229.62z"/>
			<path class="st25" d="M388.11,245.83c-4.22-0.51-8.57-1.04-13.02-1.58c-0.24,0.26-0.48,0.52-0.71,0.77
				C377.25,247.3,386.86,247.74,388.11,245.83z"/>
			<path class="st25" d="M272.1,180.51c1.86-0.14,3.5-1.2,5.22-1.85c0-0.46,0-0.92,0-1.38c-2.07-0.45-4.14-1.05-6.25-1.31
				c-1.39-0.17-2.81,0.18-4.23,0.29c0.25,0.87,0.16,2.1,0.83,2.55C268.95,179.66,270.76,180.61,272.1,180.51z"/>
			<path class="st29" d="M282.91,236.75c-0.97-0.24-1.95-0.48-2.94-0.72c-1.56,0.38-3.14,0.76-4.72,1.14
				c1.41,4.19,3.96,5.08,9.48,3.39c-0.03-1.27-0.06-2.55-0.09-3.82C284.07,236.74,283.49,236.75,282.91,236.75z"/>
			<path class="st30" d="M391.44,239.65c-0.14,0.29-0.29,0.58-0.43,0.86c1.98,1.65,3.93,3.28,5.87,4.89c0.17-1.6,0.35-3.2,0.52-4.8
				C395.43,240.29,393.45,239.98,391.44,239.65z"/>
			<path class="st26" d="M275.47,231.62c-0.08-0.02-0.16-0.03-0.24-0.05c-1.23-0.24-2.47-0.48-3.71-0.72
				c-2.49,2.54-0.63,5.65,3.74,6.32c1.58-0.38,3.16-0.76,4.72-1.14C278.48,234.57,276.98,233.1,275.47,231.62z"/>
			<path class="st25" d="M369.4,159.46c2.22-0.34,4.28-1.19,6.37-1.85c-0.09-0.16-0.18-0.32-0.27-0.48
				c-2.58-0.38-5.19-0.77-8.87-1.32C367.97,157.63,368.96,159.53,369.4,159.46z"/>
			<path class="st33" d="M336.21,223.04L336.21,223.04c-0.23,1.18-0.46,2.36-0.69,3.54v0c0.26,0.94,0.53,1.88,0.79,2.82
				c4.96-2.31,5.59-4.3,2.22-7.01C337.76,222.61,336.98,222.82,336.21,223.04C336.21,223.04,336.21,223.04,336.21,223.04z"/>
			<path class="st25" d="M305.7,243.4c0.1-0.95-0.09-1.95-0.56-3c-0.83,0.28-1.66,0.57-2.49,0.86c-0.14,0.38-0.35,0.76-0.54,1.14
				c-0.07,0.15-0.14,0.31-0.2,0.46c-0.12,0.32-0.19,0.63-0.15,0.92c0.31,2.33-0.94,3.42-3.45,3.82c0.56,0.5,1.12,1.01,1.68,1.51
				c0.32-0.1,0.65-0.2,0.97-0.3C303.89,247.33,305.48,245.49,305.7,243.4z"/>
			<path class="st29" d="M185.07,238.61c1.42-0.09,2.84-0.17,4.25-0.26c0.46-1.39,0.93-2.78,1.11-3.32c-3.2-1.28-5.59-2.23-8-3.19
				c-1.92,1.36-3.84,2.73-5.78,4.11C179.48,236.84,182.29,237.73,185.07,238.61z"/>
			<path class="st31" d="M276.28,225.26c0.44-0.45,0.84-0.87,1.24-1.28c0.09-0.1,0.18-0.19,0.27-0.28c0.79-0.82,1.52-1.57,2.23-2.31
				c-1.57-0.28-3.15-0.56-4.74-0.84c-1.51,2.12-3.03,4.25-4.56,6.4c1.71-0.03,3.42-0.06,3.98-0.06
				C275.28,226.3,275.79,225.76,276.28,225.26z"/>
			<path class="st25" d="M228.32,283.69c1.54-1.06,3.06-2.11,4.58-3.16c-2.32-0.93-4.67-1.87-7.03-2.82
				C224.56,280.42,223.1,283.18,228.32,283.69z"/>
			<path class="st27" d="M226.01,246.43c0.18-0.03,0.35-0.09,0.51-0.17c0.33-0.16,0.64-0.41,0.93-0.7c0.18-0.18,0.37-0.39,0.54-0.6
				c0.53-0.64,1.04-1.36,1.59-1.92c-2.28-0.49-4.57-0.98-6.88-1.48c-0.49,0.95-0.98,1.91-1.46,2.87
				C222.86,245.17,224.65,246.68,226.01,246.43z"/>
			<path class="st26" d="M200.72,250.41c-1.72-0.79-3.44-1.59-5.18-2.39c-0.85,1.88-1.71,3.77-2.56,5.66l0,0
				c0.83,0.41,1.5,0.71,2.08,0.84C196.8,254.91,197.87,253.89,200.72,250.41z"/>
			<path class="st32" d="M284.78,235.23c-0.04,0.5-0.09,1.01-0.13,1.51c0.03,1.27,0.06,2.55,0.09,3.82
				c1.93,0.23,4.33,1.54,4.68-1.67c0.26-0.74,0.52-1.47,0.78-2.21C288.4,236.21,286.6,235.72,284.78,235.23z"/>
			<path class="st25" d="M380.42,239.17c0.8-0.24,1.37-1.38,2.05-2.12c1.04-1.03,1.04-1.03-0.41-2.14
				c-1.52,1.23-3.01,2.45-4.52,3.67c0.08,0.02,0.17,0.05,0.25,0.07c0.53,0.16,1.08,0.39,1.6,0.51
				C379.76,239.24,380.11,239.26,380.42,239.17z"/>
			<path class="st27" d="M186.47,227.08c5.52,0.9,10.94,1.78,16.49,2.68C201.74,225.43,192.56,224.11,186.47,227.08z"/>
			<path class="st27" d="M186.47,227.08c-0.03,0-0.06-0.01-0.09-0.01c0,0,0.02,0.05,0.02,0.05
				C186.42,227.1,186.44,227.09,186.47,227.08z"/>
			<path class="st28" d="M326.35,154.53c0.59-0.71,0.95-1.59,1.41-2.4c-0.24-0.24-0.48-0.48-0.73-0.71c-0.97,0.6-1.94,1.2-2.84,1.75
				c-0.16-0.18-0.65-0.72-1.13-1.26c-0.42,0.34-1.28,0.87-1.2,0.98c0.75,1.13,1.65,2.18,2.5,3.25
				C325.03,155.61,325.82,155.16,326.35,154.53z"/>
			<path class="st30" d="M375.94,228.9c-1.13,0.89-2.26,1.78-3.4,2.68c0.4,0.46,0.81,0.92,1.21,1.37c0.87-0.03,1.73-0.06,2.59-0.09
				c0,0-0.01,0.04-0.01,0.04c0.16-1.06,0.32-2.12,0.47-3.19C376.52,229.45,376.23,229.18,375.94,228.9z"/>
			<path class="st27" d="M195.59,241.99c0.87-0.66,1.73-1.32,2.6-1.97c-2.93-0.55-5.89-1.11-8.87-1.67
				c-1.41,0.09-2.82,0.17-4.25,0.26C187.37,241.53,190.3,243.5,195.59,241.99z"/>
			<path class="st30" d="M386.36,213.39c2.78-1.15,2.11-2.71,0.83-4.4c-0.61,0.42-1.23,0.84-1.85,1.27
				C385.67,211.27,386,212.27,386.36,213.39z"/>
			<path class="st26" d="M279.34,206.43c0.2,1.92-2.8,4.45,1.66,5.55c0.6-1.62,1.2-3.23,1.91-5.14
				C281.41,206.67,280.38,206.55,279.34,206.43z"/>
			<path class="st27" d="M303.47,174.21c-0.01-0.44-0.02-0.89-0.03-1.33c-1.15,0.58-2.3,1.16-3.46,1.75c0,0,0,0,0,0
				c-0.01,0-0.02,0.01-0.03,0.01c0.01,0,0.02,0,0.02,0c0,0,0,0,0,0C301.14,174.5,302.31,174.36,303.47,174.21z"/>
			<path class="st25" d="M376.34,232.86c-0.86,0.03-1.72,0.06-2.59,0.09C374.62,234.48,375.49,234.5,376.34,232.86z"/>
			<path class="st31" d="M352.65,197.65c-0.49-0.23-0.93-0.5-1.31-0.85c-3.86-3.59-7.92-4-12.6-2.56c-0.19,0.06-0.39,0.11-0.59,0.15
				c-0.61,0.12-1.24,0.18-1.86,0.28c0.62,1.6,1.95,3.48-1.47,3.39c-1.04,1.77-2.09,3.54-3.14,5.33c0.26,1.25,0.53,2.5,0.79,3.75
				c0.98-0.02,1.96-0.05,2.94-0.07c0.52-1.16,1.04-2.33,1.55-3.46c4.27,1.51,7.6,3.69,11.54,3.87c1.8-0.39,3.59-0.78,5.37-1.17
				c-0.24-0.2-0.47-0.4-0.71-0.59c1.46-1.57,2.91-3.13,4.35-4.68c0-0.62,0.01-1.24,0.01-1.86
				C355.97,198.6,354.11,198.34,352.65,197.65z"/>
			<path class="st26" d="M374.74,198.02c-2.94,1.74-5.52-0.48-8.28-1.05c-0.83-0.17-1.64-0.49-2.53-0.77
				c-0.27,0.81-0.53,1.57-0.78,2.32c-0.15-0.27-0.3-0.54-0.45-0.8c-1.71,0.48-3.43,0.95-5.17,1.44c0,0.62-0.01,1.24-0.01,1.86
				c2.2,1.47,4.34,2.98,6.53,4.36c2.79,1.76,7.38,2.58,10.07,0.54c1.58-1.2,3.01-2.59,4.42-3.95c0.36-0.35,0.74-1.07,0.61-1.48
				c-0.12-0.4-0.9-0.59-1.35-0.94c-0.08-0.06-0.16-0.13-0.23-0.21c-0.22-0.22-0.4-0.49-0.61-0.72
				C376.2,198.4,375.2,197.75,374.74,198.02z"/>
			<path class="st34" d="M399.12,184.18c0-0.04,0-0.09,0-0.13c-0.01,0.05-0.02,0.11-0.03,0.16
				C399.08,184.21,399.12,184.18,399.12,184.18z"/>
			<path class="st28" d="M341.32,213.5C341.32,213.5,341.32,213.5,341.32,213.5c0.3,1.8,0.61,3.6,0.91,5.4
				c3.22,0.29,4.8-1.77,5.79-4.05c0.37-0.85-0.61-2.25-0.97-3.41c-0.43-0.02-0.87-0.05-1.31-0.07c-0.47,0.24-0.94,0.48-1.41,0.72
				C343.33,212.56,342.33,213.03,341.32,213.5z"/>
			<path class="st32" d="M335.41,207.07C335.41,207.07,335.41,207.07,335.41,207.07c3.05-0.53,6.31,0.91,8.02,3.27
				c0.39,0.54,0.7,1.13,0.91,1.76c0.47-0.24,0.94-0.48,1.41-0.72c0.92-1.3,1.84-2.6,2.76-3.9c-3.95-0.17-7.27-2.36-11.54-3.87
				C336.45,204.74,335.93,205.9,335.41,207.07z"/>
			<path class="st33" d="M350.04,211.31c0.23,1.87,0.46,3.75,0.69,5.61c1.37-0.19,2.73-0.38,4.08-0.57
				c0.03-0.34,0.04-0.66,0.03-0.95C354.75,213.34,353.54,212.38,350.04,211.31z"/>
			<path class="st28" d="M356.24,219.52c0.37,0.54,0.88,0.91,1.51,1.13c0.14,0.05,0.28,0.09,0.43,0.12
				c1.05,0.23,2.41,0.08,4.09-0.43c-0.04-0.29-0.09-0.58-0.13-0.87c-2.19-0.61-4.39-1.23-6.63-1.85
				C355.66,218.39,355.89,219.03,356.24,219.52z"/>
			<path class="st25" d="M318.29,216.77c0.57,1.24,1.14,2.47,1.71,3.71c1.89-3.9,2.12-3.85,6.21-1.97c1.36,0.62,3.22,0.3,4.84,0.41
				c-1.55-2.14-3.11-4.29-4.68-6.45c-1.29-0.57-2.54-0.81-3.75-0.69c-1.21,0.12-2.38,0.59-3.5,1.44c0,0,0,0,0,0
				C318.84,214.4,318.57,215.59,318.29,216.77C318.29,216.77,318.29,216.77,318.29,216.77z"/>
			<path class="st29" d="M307.85,196.85c-0.07,1.19-0.13,2.39-0.2,3.58c0,0,0,0,0,0c0,0,0,0,0,0c2.27,1.36,4.52,2.7,6.74,4.03
				c1.84-0.46,3.67-0.91,5.48-1.36c0,0,0,0,0,0c0.36-0.61,0.71-1.22,1.01-1.75c0.1-0.17,0.2-0.34,0.28-0.49
				c-1.28-0.82-2.52-1.62-3.76-2.41c-1.05-0.67-2.09-1.34-3.13-2C312.16,196.59,310.02,196.72,307.85,196.85z"/>
			<path class="st32" d="M334.81,198.06c-0.62-0.05-1.34,0.07-1.85-0.19c-2.56-1.34-4.6-0.22-5.56,1.53
				c-0.44,0.8,1.32,2.66,2.08,4.04c0.73-0.01,1.46-0.03,2.19-0.04C332.72,201.61,333.77,199.83,334.81,198.06z"/>
			<path class="st31" d="M308.79,205.57c-0.94,1.53-1.88,3.06-2.82,4.6c0.99,1.17,1.74,2.65,3.03,3.4c0.83,0.48,2.43-0.11,3.68-0.21
				c-1.28-0.61-1.81-1.3-1.95-2.02c-0.03-0.15-0.04-0.29-0.04-0.44c0-0.29,0.05-0.59,0.13-0.89c0.08-0.3,0.19-0.6,0.3-0.9
				c0-0.01,0.01-0.03,0.01-0.04c0.23-0.61,0.47-1.22,0.55-1.82c0.04-0.3,0.04-0.6-0.02-0.89c0,0,0,0,0,0
				C310.71,206.09,309.75,205.83,308.79,205.57z"/>
			<path class="st31" d="M306.08,193.55c0.6,0.57,1.2,1.14,1.8,1.71c1.22-1.02,2.44-2.03,3.65-3.04c0,0,0,0,0,0
				c-0.48-1.6-0.95-3.21-1.43-4.82c0,0,0,0,0,0c-1.08,0.17-2.16,0.35-3.25,0.52C306.59,189.79,306.34,191.67,306.08,193.55z"/>
			<path class="st27" d="M314.4,204.46c-2.23-1.33-4.47-2.68-6.74-4.03c0,0,0,0,0,0c-0.5,0.74-1.01,1.49-1.51,2.23
				c0.88,0.98,1.77,1.95,2.64,2.91c0.96,0.26,1.92,0.52,2.87,0.78c0,0,0,0,0,0c0.31-0.2,0.63-0.4,0.94-0.6
				C313.2,205.32,313.8,204.89,314.4,204.46z"/>
			<path class="st32" d="M307.88,195.26c-0.01,0.53-0.02,1.06-0.03,1.59c0,0,0,0,0,0c2.17-0.13,4.31-0.26,6.44-0.39c0,0,0,0,0,0
				c-0.92-1.41-1.84-2.82-2.76-4.24c0,0,0,0,0,0C310.32,193.23,309.1,194.24,307.88,195.26z"/>
			<path class="st25" d="M218.85,271.51c2.75,1.51,5.48,3.01,8.18,4.5c0.38-1.39,1.51-3.07,0.95-4.09
				c-0.19-0.34-0.46-0.65-0.78-0.93c-0.97-0.86-2.42-1.55-3.56-2.35C219.3,266.83,219.87,269.97,218.85,271.51z"/>
			<path class="st25" d="M315.62,226.02c-1.44,0.13-2.94,0.27-4.54,0.42c0-3.43,0-6.62,0-9.81c-1.65-0.89-3.2-1.56-5.02-0.05
				c-0.64,0.54-2.07,0.78-2.97,0.57c-1.38-0.32-2.61-1.15-3.92-1.76c-0.48,1.15-1.1,2.32-1.46,3.47c-0.3,0.96-0.41,1.91-0.09,2.82
				c0.31,0.91,1.05,1.79,2.43,2.6c0,0,0,0,0,0c0.89-0.01,1.77-0.02,2.65-0.03c4.53,0.55,6.78,1.59,7.18,3.65
				c0.24,1.23-0.19,2.84-1.2,4.93c-0.11,0.22-0.1,0.48-0.14,0.72c0.62,0.79,1.24,1.57,1.85,2.35c0.26-0.03,0.52-0.07,0.78-0.1
				c2.68-0.34,5.33-0.68,7.95-1.02c0,0,0,0,0,0c0.82-1.45,1.46-3,2.5-4.28c0.77-0.95,2.06-1.55,3.11-2.3
				c-0.79-0.93-1.59-1.87-2.38-2.81C320.18,225.6,317.99,225.8,315.62,226.02z"/>
			<path class="st25" d="M284.78,235.19c1.53-1.04,3.06-2.07,4.57-3.09c2.52-0.02,3.81-1.03,3.68-3.21
				c-1.99-1.65-3.94-3.39-6.42-4.56c-0.5-0.24-1.02-0.45-1.56-0.63c-1.09-0.37-2.29-0.63-3.63-0.73c0.43,2.29,0.73,3.96,0.77,5.17
				c0,0.13,0.01,0.26,0,0.39c-0.04,2.73-1.68,2.91-6.73,3.09c1.51,1.48,3.01,2.95,4.51,4.41c0.98,0.24,1.96,0.48,2.94,0.72
				C283.54,236.23,284.16,235.71,284.78,235.19C284.78,235.19,284.78,235.19,284.78,235.19z"/>
			<path class="st32" d="M300.05,224.27C300.05,224.27,300.05,224.27,300.05,224.27c-2.31,1.52-4.65,3.06-7.01,4.61c0,0,0,0,0,0
				c0.13,2.18-1.16,3.19-3.68,3.21c0.92,0.74,1.84,1.48,2.75,2.22c0.63-0.15,1.27-0.4,1.9-0.51c0.21-0.04,0.42-0.06,0.62-0.06
				c3.04,0.03,5.29-0.4,6.79-1.28c0.53-0.31,0.96-0.68,1.3-1.11c0.34-0.43,0.58-0.92,0.74-1.46c0.11-0.39,0.18-0.81,0.19-1.27
				c0-0.06,0.01-0.11,0.01-0.16c0.01-1.2-0.31-2.6-0.96-4.22c0,0,0,0,0,0C301.82,224.26,300.93,224.27,300.05,224.27z"/>
			<path class="st32" d="M295.43,210.33c0.38-0.02,0.76-0.05,1.14-0.07c0.43-0.96,0.87-1.91,1.37-3.02
				c1.31,0.84,2.54,1.62,4.02,2.57c-1.12,0.7-1.9,1.2-2.69,1.69c0.26,0.38,0.52,0.76,0.78,1.14c1.07-0.5,2.73-0.79,3.06-1.53
				c0.68-1.51,1.19-2.14,2.84-0.93v0c0.94-1.54,1.88-3.07,2.82-4.6c-0.88-0.97-1.76-1.94-2.64-2.91c-1.8-0.15-4.15,2.5-5.36-0.93
				c0,0,0,0,0,0c-1.34-0.07-2.69-0.14-4.05-0.22c-0.66-0.04-1.32-0.07-1.99-0.11c-0.02,1.55-0.05,3.11-0.07,4.66
				C294.92,207.48,295.18,208.91,295.43,210.33z"/>
			<path class="st25" d="M300.78,201.72c1.22,3.43,3.56,0.78,5.36,0.93c0.5-0.75,1.01-1.49,1.51-2.23c0.07-1.19,0.13-2.39,0.2-3.58
				c0.01-0.53,0.02-1.06,0.03-1.59c-0.6-0.57-1.2-1.14-1.8-1.71c-1.15-0.29-2.31-0.58-3.47-0.87c-0.43,0.81-1.04,1.6-1.4,2.43
				c-0.12,0.28-0.21,0.56-0.26,0.85c-0.08,0.47-0.12,0.95-0.15,1.42C300.72,198.82,300.81,200.28,300.78,201.72z"/>
			<path class="st28" d="M326.21,218.51c-4.1-1.88-4.33-1.93-6.21,1.97c0.79,1.65,1.57,3.29,2.36,4.92c0.8,0.94,1.59,1.87,2.38,2.81
				c0.74,0.47,1.47,0.94,2.21,1.41c2.89-1.02,5.75-2.04,8.57-3.03c0.23-1.18,0.46-2.36,0.69-3.54l0,0
				c-1.71-1.36-3.42-2.74-5.16-4.12C329.43,218.81,327.57,219.13,326.21,218.51z"/>
			<path class="st25" d="M344.33,212.09c-0.21-0.63-0.52-1.22-0.91-1.76c-1.7-2.36-4.97-3.79-8.02-3.27c0,0,0,0,0,0
				c-0.98,0.02-1.96,0.05-2.94,0.07c0,0,0,0,0,0c0.51,1.57,1.01,3.14,1.51,4.7c2.47,0.56,4.92,1.12,7.34,1.67
				C342.33,213.03,343.33,212.56,344.33,212.09z"/>
			<path class="st27" d="M310.39,235.9c-0.62-0.78-1.23-1.56-1.85-2.35c-1.96,1.35-3.94,2.7-5.93,4.07
				c0.02,1.21,0.03,2.42,0.05,3.63c0.83-0.29,1.66-0.57,2.49-0.86c2.28-0.6,4.53-1.2,6.77-1.79
				C311.4,237.71,310.9,236.81,310.39,235.9z"/>
			<path class="st27" d="M289.36,232.1c-1.51,1.03-3.04,2.06-4.57,3.09c0,0,0-0.01,0-0.01c-0.62,0.52-1.24,1.04-1.87,1.56
				c0.58,0,1.16-0.01,1.73-0.01c0,0,0,0,0,0c0.04-0.5,0.09-1,0.13-1.51c1.82,0.49,3.62,0.97,5.42,1.45h0
				c0.06-0.07,0.11-0.14,0.17-0.21c0.58-0.72,1.16-1.44,1.74-2.16C291.19,233.58,290.28,232.84,289.36,232.1z"/>
			<path class="st25" d="M316.75,255.27c-1.88,0.89-3.78,1.79-5.69,2.69c1.1,1.29,2.2,2.57,3.29,3.85c0,0,0,0,0,0
				c0.56,0,1.12,0,1.68,0.01c0.26,0,0.51,0,0.77,0c1.16-0.93,1.9-1.82,2.21-2.66c0.05-0.15,0.09-0.3,0.12-0.45
				c0.05-0.26,0.05-0.52,0.01-0.78c-0.05-0.27-0.14-0.53-0.29-0.79c-0.09-0.16-0.2-0.32-0.34-0.48
				C318.1,256.18,317.52,255.72,316.75,255.27z"/>
			<path class="st30" d="M311.06,257.96c-0.28,0.02-0.56,0.03-0.84,0.05c0,0,0,0,0,0c-1.09,2.52-2.19,5.06-3.3,7.6c0,0,0,0,0,0
				c2.5-1.28,4.98-2.55,7.43-3.8c0,0,0,0,0,0C313.26,260.54,312.16,259.25,311.06,257.96z"/>
			<path class="st28" d="M311.91,238.61c-2.23,0.59-4.49,1.19-6.77,1.79c0.47,1.05,0.66,2.05,0.56,3c-0.22,2.09-1.81,3.93-4.73,5.4
				c0,0,0,0,0,0c3.44,0.88,8.18-0.39,9.24,4.08c3.06,0.4,4.32-1.81,5.94-3.46c0-1.68,0-3.36,0-5.04c0.26-1.48,0.51-2.96,0.77-4.44
				C315.26,239.5,313.59,239.05,311.91,238.61z"/>
			<path class="st31" d="M310.2,252.88c-0.54,1.67-1.09,3.35-1.63,5.03c0.55,0.03,1.1,0.07,1.65,0.1c0.28-0.02,0.56-0.03,0.84-0.05
				c1.91-0.9,3.81-1.8,5.69-2.69c1.11-1.08,2.21-2.16,3.31-3.24c-1.3-0.87-2.6-1.74-3.91-2.61
				C314.53,251.07,313.27,253.28,310.2,252.88z"/>
			<path class="st26" d="M316.15,244.38c1.28-0.08,2.56-0.16,3.83-0.24c0.76-2.4,1.09-3.44,0.46-3.89
				c-0.06-0.04-0.13-0.08-0.21-0.11c-0.56-0.23-1.61-0.22-3.3-0.2C316.66,241.42,316.4,242.9,316.15,244.38z"/>
			<path class="st27" d="M318.29,216.77c-2.38-0.05-4.79-0.1-7.22-0.15c0,3.19,0,6.38,0,9.81c1.61-0.15,3.11-0.29,4.54-0.42
				c2.37-0.22,4.57-0.42,6.74-0.62c-0.78-1.63-1.57-3.28-2.36-4.92C319.43,219.25,318.86,218.01,318.29,216.77
				C318.29,216.77,318.29,216.77,318.29,216.77z"/>
		</g>
		<g>
			<path class="st35" d="M194.8,164.7"/>
			<g>
				<path class="st35" d="M194.8,165.7c1.29,0,1.29-2,0-2C193.51,163.7,193.51,165.7,194.8,165.7L194.8,165.7z"/>
			</g>
		</g>
		<g>
			<path class="st35" d="M163.95,179.41"/>
			<g>
				<path class="st35" d="M163.95,180.41c1.29,0,1.29-2,0-2C162.66,178.41,162.66,180.41,163.95,180.41L163.95,180.41z"/>
			</g>
		</g>
		<line class="st36" x1="106.79" y1="156.45" x2="162.47" y2="153.5"/>
		<line class="st36" x1="163.66" y1="223.22" x2="183.9" y2="202.33"/>
		<line class="st36" x1="215.92" y1="244" x2="224.36" y2="258.59"/>
		<line class="st36" x1="233.79" y1="270.53" x2="219.48" y2="283.35"/>
		<line class="st36" x1="281.92" y1="228.14" x2="297.67" y2="224.41"/>
		<line class="st36" x1="318.35" y1="246.33" x2="315.62" y2="222.15"/>
		<line class="st36" x1="347.94" y1="220.23" x2="315.62" y2="222.15"/>
		<line class="st36" x1="373.55" y1="213.49" x2="385.11" y2="194.56"/>
		<line class="st36" x1="372.06" y1="181.46" x2="396.15" y2="175.49"/>
		<line class="st36" x1="384.32" y1="168.47" x2="351.52" y2="169.18"/>
		<line class="st36" x1="327.8" y1="185.78" x2="351.52" y2="169.18"/>
		<line class="st36" x1="163.95" y1="179.41" x2="194.8" y2="164.7"/>
		<path class="st35" d="M186.36,202.39c0,0.95-1.1,1.7-2.46,1.67c-1.37-0.03-2.48-0.84-2.48-1.8s1.11-1.71,2.48-1.67
			C185.26,200.64,186.36,201.44,186.36,202.39z"/>
		<path class="st35" d="M166.04,223.2c0,0.89-1.07,1.63-2.39,1.64c-1.33,0.01-2.41-0.71-2.41-1.61s1.08-1.64,2.41-1.64
			C164.98,221.59,166.04,222.3,166.04,223.2z"/>
		<path class="st35" d="M217.7,243.92c0,0.73-0.8,1.36-1.78,1.4c-0.99,0.05-1.8-0.51-1.8-1.24s0.81-1.36,1.8-1.4
			C216.9,242.63,217.7,243.19,217.7,243.92z"/>
		<path class="st35" d="M225.99,258.47c0,0.68-0.73,1.28-1.64,1.35c-0.91,0.07-1.65-0.43-1.65-1.12c0-0.68,0.74-1.29,1.65-1.35
			C225.26,257.29,225.99,257.79,225.99,258.47z"/>
		<path class="st35" d="M221.24,283.15c0,0.73-0.79,1.41-1.77,1.52c-0.98,0.11-1.78-0.39-1.78-1.12c0-0.73,0.8-1.41,1.78-1.52
			C220.46,281.92,221.24,282.42,221.24,283.15z"/>
		<path class="st35" d="M235.2,270.4c0,0.59-0.63,1.13-1.4,1.21c-0.78,0.07-1.41-0.35-1.41-0.94s0.63-1.14,1.41-1.21
			C234.57,269.39,235.2,269.81,235.2,270.4z"/>
		<path class="st35" d="M283.09,228.11c0,0.54-0.52,0.99-1.17,1c-0.65,0.01-1.18-0.42-1.18-0.96c0-0.54,0.53-0.99,1.18-1
			C282.56,227.14,283.09,227.57,283.09,228.11z"/>
		<path class="st35" d="M298.73,224.4c0,0.5-0.47,0.92-1.06,0.93c-0.59,0.01-1.06-0.4-1.06-0.9c0-0.51,0.48-0.92,1.06-0.93
			C298.26,223.49,298.73,223.89,298.73,224.4z"/>
		<path class="st35" d="M329.53,185.9c0,0.88-0.77,1.53-1.73,1.47c-0.96-0.06-1.74-0.83-1.74-1.72c0-0.88,0.78-1.54,1.74-1.47
			C328.76,184.26,329.53,185.03,329.53,185.9z"/>
		<path class="st35" d="M353.07,169.35c0,0.83-0.69,1.43-1.55,1.33c-0.86-0.09-1.56-0.85-1.56-1.69s0.7-1.43,1.56-1.33
			C352.38,167.77,353.07,168.52,353.07,169.35z"/>
		<path class="st35" d="M373.26,181.57c0,0.68-0.54,1.18-1.21,1.12c-0.67-0.06-1.21-0.66-1.21-1.34c0-0.68,0.54-1.18,1.21-1.12
			C372.72,180.29,373.26,180.89,373.26,181.57z"/>
		<path class="st35" d="M385.61,168.63c0,0.75-0.58,1.28-1.29,1.2c-0.72-0.09-1.3-0.77-1.3-1.52s0.58-1.29,1.3-1.2
			C385.04,167.2,385.61,167.88,385.61,168.63z"/>
		<path class="st35" d="M397.36,175.62c0,0.72-0.54,1.25-1.22,1.18c-0.68-0.07-1.22-0.72-1.22-1.45s0.55-1.26,1.22-1.18
			C396.82,174.25,397.36,174.9,397.36,175.62z"/>
		<path class="st35" d="M386.4,194.64c0,0.75-0.57,1.32-1.29,1.28c-0.71-0.04-1.29-0.68-1.29-1.43s0.58-1.32,1.29-1.28
			C385.82,193.25,386.4,193.89,386.4,194.64z"/>
		<path class="st35" d="M374.91,213.51c0,0.77-0.61,1.38-1.36,1.38c-0.76-0.01-1.37-0.64-1.37-1.41s0.61-1.39,1.37-1.38
			C374.3,212.11,374.91,212.74,374.91,213.51z"/>
		<path class="st35" d="M349.48,220.23c0,0.81-0.68,1.48-1.53,1.48c-0.85,0.01-1.54-0.65-1.54-1.47c0-0.82,0.69-1.48,1.54-1.48
			C348.79,218.75,349.48,219.41,349.48,220.23z"/>
		<path class="st35" d="M320.1,246.23c0,0.87-0.78,1.62-1.74,1.68c-0.97,0.06-1.76-0.6-1.76-1.47s0.79-1.63,1.76-1.68
			C319.32,244.7,320.1,245.36,320.1,246.23z"/>
		<path class="st35" d="M167.02,179.6c0,1.15-1.37,2-3.07,1.9c-1.71-0.1-3.1-1.13-3.1-2.29s1.39-2.01,3.1-1.9
			C165.65,177.43,167.02,178.45,167.02,179.6z"/>
		<path class="st35" d="M165.56,153.82c0,1.15-1.38,1.95-3.09,1.78c-1.72-0.17-3.12-1.26-3.12-2.42s1.4-1.96,3.12-1.78
			C164.18,151.59,165.56,152.67,165.56,153.82z"/>
		<path class="st35" d="M110.45,156.79c0,1.26-1.63,2.13-3.66,1.95c-2.04-0.18-3.7-1.35-3.7-2.62s1.66-2.14,3.7-1.95
			C108.82,154.36,110.45,155.53,110.45,156.79z"/>
		<path class="st35" d="M197.58,164.96c0,1.09-1.24,1.87-2.78,1.74c-1.55-0.13-2.8-1.14-2.8-2.25s1.26-1.88,2.8-1.74
			C196.34,162.86,197.58,163.86,197.58,164.96z"/>
	</g>
	<path id="Layer_47_" class="st37" d="M591.68,503.81c-79.6-5.1-182.7-22.6-290.4-49.5"/>
	<path id="Layer_48_" class="st37" d="M334.28,280.51c7.3-6.3,14-12.3,19.8-17.9"/>
	<path id="Layer_1_" class="st37" d="M277.19,340.48c60.4-35.2,114.7-72.7,152.9-105.4"/>
</g>
</svg>
