<?xml version="1.0" encoding="utf-8"?>
<!-- Generator: Adobe Illustrator 24.0.2, SVG Export Plug-In . SVG Version: 6.00 Build 0)  -->
<svg version="1.1" xmlns="http://www.w3.org/2000/svg" xmlns:xlink="http://www.w3.org/1999/xlink" x="0px" y="0px"
	 viewBox="0 0 645.1 529.5" style="enable-background:new 0 0 645.1 529.5;" xml:space="preserve">
<style type="text/css">
	.st0{fill:#E6E6E6;}
	.st1{fill:#9E616A;}
	.st2{fill:#2F2E41;}
	.st3{fill:#FFB6B6;}
	.st4{fill:#3F3D56;}
	.st5{fill:#FFBC00;}
	.st6{fill:none;stroke:#FFBC00;stroke-width:2;stroke-miterlimit:10;}
</style>
<g id="Capa_3">
	
		<rect x="206" y="194.8" transform="matrix(0.7966 -0.6045 0.6045 0.7966 -60.5942 216.0928)" class="st0" width="169.6" height="6.6"/>
	
		<rect x="289.5" y="149.9" transform="matrix(-8.743251e-02 -0.9962 0.9962 -8.743251e-02 266.6779 550.6857)" class="st0" width="192.2" height="6.6"/>
	
		<rect x="315.4" y="99.6" transform="matrix(9.327429e-02 -0.9956 0.9956 9.327429e-02 225.1893 453.0447)" class="st0" width="91.8" height="6.6"/>
	<rect x="213.8" y="51.4" class="st0" width="166.7" height="6.6"/>
	
		<rect x="118.7" y="146.3" transform="matrix(-1.836970e-16 1 -1 -1.836970e-16 366.5778 -67.3345)" class="st0" width="196.5" height="6.6"/>
	
		<rect x="215" y="125.3" transform="matrix(-1.836970e-16 1 -1 -1.836970e-16 417.5866 -160.2671)" class="st0" width="147.9" height="6.6"/>
	
		<rect x="282.7" y="212.8" transform="matrix(0.9568 0.2909 -0.2909 0.9568 77.5619 -89.507)" class="st0" width="114.4" height="6.6"/>
	
		<rect x="213.6" y="246.4" transform="matrix(-1 -1.224647e-16 1.224647e-16 -1 648.2719 499.3449)" class="st0" width="221" height="6.6"/>
	
		<rect x="211.5" y="119.7" transform="matrix(0.9446 0.3283 -0.3283 0.9446 56.303 -87.4739)" class="st0" width="151.6" height="6.6"/>
</g>
<g id="Capa_1">
	<polygon class="st1" points="202.7,514.4 209.7,514.4 213,487.6 202.7,487.6 	"/>
	<path class="st2" d="M200.5,509.7l11.1-0.7v4.8l10.6,7.3c1.3,0.9,1.7,2.8,0.8,4.1c-0.6,0.8-1.5,1.3-2.4,1.3h-13.2l-2.3-4.7
		l-0.9,4.7h-5L200.5,509.7z"/>
	<polygon class="st1" points="115.7,508.5 122.1,511.1 135.1,487.4 125.6,483.6 	"/>
	<path class="st2" d="M115.3,503.3l10.6,3.5l-1.8,4.4l7.1,10.7c0.9,1.4,0.5,3.2-0.8,4.1c-0.8,0.5-1.8,0.6-2.7,0.3l-12.3-4.9
		l-0.4-5.2l-2.6,4l-4.6-1.8L115.3,503.3z"/>
	<path class="st2" d="M188.7,434.7l-11.6-54.1L159,440.7l-28.6,57l-0.2,0.3l-9.1-4.9c-1.3-23.1,1.8-44.8,12.9-63.7l5.3-52
		c0.2-1.8,4.1-43.5,16.5-50.9l3.6-8.3l36.2-8.9l0.1,0.1c3.5,3.9,5.8,8.7,6.6,13.9l10.8,65.6l0,0l-2.9,45.8l4,67.5H200
		C191.2,485.4,187.4,462.9,188.7,434.7z"/>
	<path class="st3" d="M399.4,202.3c4,0,7.2,3.3,7.2,7.3c0,0.4,0,0.9-0.1,1.3l13.9,9l-3.4,9.8l-19.5-13.1c-3.9-1-6.3-5-5.3-8.9
		C393,204.5,396,202.2,399.4,202.3L399.4,202.3z"/>
	<path class="st4" d="M404.3,226.1l9.9-11.5l12.8,5.9l26.2,20.9c3.4,0.4,29.5,3.8,29,13.3c0,2.3-1,4.4-2.8,5.9
		c-4.1,3.4-11.2,2.4-11.5,2.4l-17.1-0.9c-0.9,0.2-10.2,2.3-15.1-0.7C434.4,260.5,404.3,226.1,404.3,226.1z"/>
	<polygon class="st3" points="432.9,518.7 424.8,518.7 420.9,487.3 432.9,487.3 	"/>
	<path class="st2" d="M435,526.6l-26.2,0v-0.3c0-5.6,4.6-10.2,10.2-10.2h0l4.8-3.6l8.9,3.6l2.3,0L435,526.6z"/>
	<polygon class="st3" points="522.1,512.3 514.3,514.5 502.2,485.3 513.8,482.1 	"/>
	<path class="st2" d="M526.2,519.4l-25.3,7l-0.1-0.3c-1.5-5.4,1.7-11,7.1-12.5l0,0l3.6-4.8l9.6,1.1l2.2-0.6L526.2,519.4z"/>
	<path class="st2" d="M433.3,329l61.4,3.1l0,0.1c3.7,10.2,4.5,21.2,2.5,31.9l0,0l1.9,15.7l9.4,48.9l12.5,62.7c0,0,16.3,4.4-5,11.9
		s-16.9,3.1-13.8-2.5s-15.4-69.2-15.4-69.2l-22.6-50.8l-21.9,52.6l-2.5,58.3c0,0,6.6,7.8-12.2,11s-17.9-2.8-13.5-7.2
		s8.1-62.7,8.1-62.7l4.4-55.1C426.7,377.5,425.5,345.6,433.3,329z"/>
	<path class="st4" d="M493.3,257.4l-4.9-13l-15.9-15.7l-20.1-1.6l-14.8,13.3l-4.2,13.2c5.5,25.4,5.4,48.8-2.4,71.5
		c-2.1,6,1,12.5,7,14.6c0.6,0.2,1.2,0.4,1.9,0.5c22.8,3.8,65.3,9.6,62.4-1.4c-3.9-14.5-17.3-45.6-12.3-62.1c1.8-5.7,3-11.6,3.4-17.6
		L493.3,257.4z"/>
	<circle class="st3" cx="459" cy="204.2" r="18"/>
	<path class="st2" d="M454.1,221.2l13.7-0.7c1.8-0.1,3.7-0.2,4.9-1.5c0.7-0.7,1.2-1.6,1.6-2.6c1.3-2.9,2.5-5.9,3.8-8.8
		c1.7-4.1,3.4-8.4,2.9-12.8c-0.1-2-0.9-3.9-2.4-5.3c-1.5-1.4-3.8-1.6-5.5-0.6c-0.4-2.8-2.1-5.3-4.6-6.7c-2.5-1.4-5.3-2-8.1-1.7
		c-4.1,0.3-8,1.8-11.2,4.4c-0.9,0.8-1.8,1.6-2.9,2.3c-1,0.7-2.3,0.9-3.5,0.6c-1.2-0.3-2-1.5-1.8-2.7c-2,1.5-2.5,4.3-1.2,6.4
		c-1.4,0.6-3.1,0.4-4.4-0.5c-2.6,1.3-3.7,4.5-2.4,7.2s4.5,3.7,7.2,2.4c0.3-0.1,0.6-0.3,0.9-0.5c0.8,1.2,0.5,2.7,0.4,4.2
		s0.3,3.2,1.6,3.6c1.9,0.5,3.4-2,5.3-1.9c1,0.1,1.8,0.6,2.3,1.5c0.5,0.8,0.8,1.8,0.9,2.7L454.1,221.2"/>
	<path class="st3" d="M378.5,237.2c4-0.2,7.4,2.9,7.6,7c0,0.4,0,0.9-0.1,1.3l14.3,8.4l-3,9.9l-20.1-12.1c-3.9-0.8-6.5-4.7-5.7-8.6
		C372.3,239.7,375.1,237.3,378.5,237.2L378.5,237.2z"/>
	<path class="st4" d="M395.4,268.4l-10.7-11.6l7.4-11.1l8,6.7l8.7,2.1l12.3,4.7c1.7-3,15-25.7,23.7-21.5c2.1,0.9,3.6,2.7,4.3,4.8
		c1.5,5.1-2.2,11.3-2.3,11.5l-7.5,15.4c-0.2,0.9-1.8,10.3-6.6,13.6c-1.3,1-3.1,1.4-4.7,1c-14.7-2.8-25-7.1-30.3-12.5
		C396.9,270.6,396,269.6,395.4,268.4z"/>
	<path class="st2" d="M205.1,223.7c-1.6-3.5,1-7.5,1.9-11.3c1.7-7.1-3.2-14.8-9.8-17.3c-6.6-2.5-14.3-0.4-20,3.9
		c-5.6,4.2-9.5,6.2-13.4,12.2c-1.3,2-2.7,8.2-2.9,10.6c-0.2,2.4,1,5.1,3.3,5.7c-0.7,1.3-0.1,2.9,1.2,3.5c0.5,0.2,1,0.3,1.6,0.3
		c4.3-0.8,12.3,1.5,12.3,1.5c7.4,0.4,14.8,0.8,22.3,1.3c1.9,0.1,3.9,0.2,5.6-0.8c1-0.6,1.6-1.5,1.8-2.6
		C209.2,227.7,206.2,226.1,205.1,223.7z"/>
	<path class="st0" d="M210.7,254.6l-1.6,10.8l-2.6,17.1l-0.4,6.3l-3.2,46.5l-8.8,6.8c-10.6,8.1-25.6,7-34.9-2.6l-10.7-5.2
		c5.7-5.6,4.7-31.8,4.7-31.8l-0.1-51.4l14.5-4.9l4.8-9.4h17.2l4.3,10l7.8,3.6l3.5,1.6L210.7,254.6z"/>
	<circle class="st1" cx="181.7" cy="217.6" r="14.5"/>
	<path class="st2" d="M173.4,213c-3.8,0-7.6-1.2-10.7-3.4l-0.1-0.1l0,0c0-7.8,6.3-14.1,14.1-14.1l0,0h5.8c7.7,0,14,6.3,14,14
		c0,0,0,0,0,0c0,1.7-1.4,3.2-3.2,3.2l-19.5,0.3C173.6,213,173.5,213,173.4,213z"/>
	<path class="st1" d="M215.9,284.5l-13.1,0.1l-1,23.4l-10.7,13.1c-3.9,0.7-6.5,4.3-5.9,8.2c0.7,3.9,4.3,6.5,8.2,5.9
		c3-0.5,5.4-2.9,5.9-6l14.7-20.4L215.9,284.5z"/>
	<path class="st1" d="M146.6,285.2l-13.5-6.3l-14.7,18.2l-16.4,4.1c-3.5-1.8-7.8-0.4-9.6,3.1c-1.8,3.5-0.4,7.8,3.1,9.6
		c2.8,1.4,6.1,0.9,8.3-1.3l24-7.6L146.6,285.2z"/>
	<path class="st2" d="M188.9,231l5-6.3c0.5-0.5,0.9-1.3,1-2c0-0.8-0.7-1.6-1.4-1.3c-0.7,0.2-4.6-9.5-5.3-9.5c-0.7,0-1-1-1-1.7
		c0-2.8,2.2,0.2,3-2.5s3.7-0.4,6.2-1.6s6-0.7,7.5,1.7c1.2,1.7,1.1,4,1,6c-0.4,4.8-1.1,9.6-2.2,14.2c-0.3,1.2-0.7,2.4-1.7,3
		c-0.6,0.2-1.2,0.3-1.8,0.3l-7.7,0"/>
	<circle class="st2" cx="201" cy="196.9" r="7.2"/>
	<path class="st0" d="M217.1,284.3c-0.8,1.3-2.4,1.9-3.9,2.3c-2,0.6-2.6,1.1-4.7,1.7c-0.8,0.2-1.6,0.5-2.4,0.7
		c-1.3,0.4-2.7,0.6-4.1,0.8c-1.2,0.2-2.5,0.2-3.3-0.7c-0.5-0.8-0.7-1.7-0.6-2.6c0.3-11,0.6-22,0.9-33l0.6,0.2
		c0.3-0.2,0.6-0.4,0.9-0.5c1.4-0.7,3-1.1,4.6-1.1c0.9,0,1.8,0.1,2.7,0.4c2.8,0.9,5,2.9,6.1,5.6c0.7,2,1.1,4.1,1,6.2c0,0.3,0,0.6,0,1
		c0,2.7-1.4,5.5-1.3,8.2c0,0.8,0.1,1.5,0.3,2.3c0.3,0.7,0.8,1.3,1.1,2.1c0.2,0.8-0.1,1.8-0.9,1.8c1.6-0.2,3.1,1,3.3,2.7
		C217.5,283.1,217.4,283.7,217.1,284.3L217.1,284.3z"/>
	<path class="st0" d="M153.1,251.3c5.4,0.3,9.5,4.9,9.1,10.3c0,0.6-0.1,1.2-0.3,1.8c-0.7,2.3-1.9,4.5-3.5,6.4l-4.8,6.7
		c-0.5,0.6-0.9,1.3-1.1,2c-0.2,0.8-0.1,1.6-0.4,2.3s-1.2,1.4-1.8,0.9c1.4,0.8,1.9,2.7,1.1,4.1c-0.3,0.5-0.8,1-1.4,1.2
		c-1.4,0.6-3.1,0.1-4.5-0.5l-5.9-2.3c-2.1-0.7-4.1-1.6-6.1-2.7c-1-0.6-2.1-1.4-2.2-2.5c-0.1-0.9,0.7-1.6,1.1-2.4
		C137.2,266.4,144.3,258.2,153.1,251.3L153.1,251.3z"/>
</g>
<g id="Capa_2">
	<circle class="st5" cx="394" cy="249.7" r="4.9"/>
	<circle class="st5" cx="376.9" cy="54.7" r="5.4"/>
	<circle class="st5" cx="357.2" cy="147" r="5.2"/>
	<circle class="st5" cx="288.9" cy="122.7" r="5"/>
	<circle class="st5" cx="217" cy="99" r="4.9"/>
	<circle class="st5" cx="217" cy="156.4" r="4.8"/>
	<circle class="st5" cx="287.5" cy="199.6" r="5.6"/>
	<circle class="st5" cx="240.9" cy="236.6" r="5.4"/>
	<polyline class="st6" points="240.9,236.6 287.5,199.6 217,156.4 217,99 288.4,123.1 357.2,147 365.3,55.2 376.9,55.7 394,249.7 	
		"/>
</g>
</svg>
