<?xml version="1.0" encoding="utf-8"?>
<!-- Generator: Adobe Illustrator 24.0.2, SVG Export Plug-In . SVG Version: 6.00 Build 0)  -->
<svg version="1.1" xmlns="http://www.w3.org/2000/svg" xmlns:xlink="http://www.w3.org/1999/xlink" x="0px" y="0px"
	 viewBox="0 0 691.9 626.3" style="enable-background:new 0 0 691.9 626.3;" xml:space="preserve">
<style type="text/css">
	.st0{fill:#3F3D56;}
	.st1{fill:#A0616A;}
	.st2{fill:#E6E6E6;}
	.st3{fill:#2F2E41;}
	.st4{fill:#F2F2F2;}
	.st5{fill:#0EA2BD;}
	.st6{fill:#FFFFFF;}
	.st7{fill:none;stroke:#FFFFFF;stroke-width:2;stroke-miterlimit:10;}
</style>
<g id="Capa_1">
	<path class="st0" d="M512.4,65.8c0.5,0.3,1,0.6,1.5,1c2.2,1.7,3.5,4.4,3.5,7.3V153h2V74c0-3.4-1.6-6.7-4.3-8.8
		c-0.6-0.5-1.2-0.8-1.8-1.2c-1.6-0.8-3.4-1.3-5.2-1.3H406v2h102.2C509.7,64.7,511.1,65.1,512.4,65.8z"/>
	<path class="st1" d="M484.5,117.8c0.7,4.9,5.2,8.3,10.1,7.7c0.5-0.1,0.9-0.2,1.4-0.3l19,25.5l16.3-5.1l-29.7-32.1
		c-1.5-3.8-5.4-6.2-9.5-5.7c-4.8,0.6-8.1,5-7.5,9.7l0,0C484.4,117.7,484.5,117.7,484.5,117.8z"/>
	<path class="st2" d="M618.3,231.5c0,0-70.8-33-88.7-54.1l-32.1-39.8l16.3-13.3L544,159c-0.3,7.3,35.4,14.8,54.5,25.4L618.3,231.5z"
		/>
	<polygon class="st1" points="635.8,610.1 621.9,610 615.3,556.5 635.8,556.5 	"/>
	<path class="st3" d="M636.2,624.5h-42.7V624c0-9.2,7.4-16.6,16.6-16.6l0,0l7.8-5.9l14.6,5.9h3.7L636.2,624.5z"/>
	<polygon class="st1" points="602.6,597.8 589.1,601 570.5,550.3 590.5,545.6 	"/>
	<path class="st3" d="M606.4,611.8l-41.6,9.7l-0.1-0.5c-2.1-8.9,3.5-17.9,12.4-20l0,0l6.3-7.5l15.5,2.5l3.6-0.8L606.4,611.8z"/>
	<path class="st4" d="M467.1,297.3H80.6c-2.4,0-4.9-0.3-7.2-0.9c-14.6-3.5-24.8-16.5-24.8-31.5V133.5c0-17.9,14.5-32.4,32.4-32.4
		h386.1c5.2,0,10.3,1.2,14.9,3.7c1.8,1,3.6,2.1,5.2,3.4c7.8,6.1,12.3,15.5,12.3,25.4V265C499.5,282.7,485,297.3,467.1,297.3z"/>
	<path class="st0" d="M19.3,148.2V69.3c0-5.1,4.2-9.3,9.3-9.3h102.2v-2H28.6c-6.2,0-11.3,5.1-11.3,11.3v78.9L19.3,148.2z"/>
	<path class="st0" d="M18,337.2c-4.2-1-7.1-4.7-7.1-9v-78.9h-2v78.9c0,5.2,3.6,9.8,8.6,11c0.8,0.2,1.7,0.3,2.5,0.3h102.4v-2H20
		C19.3,337.5,18.6,337.4,18,337.2z"/>
	<path class="st0" d="M511,259.8v78.9c0,5.1-4.2,9.3-9.3,9.3H399.5v2h102.2c6.2,0,11.3-5.1,11.3-11.3v-78.9H511z"/>
	<path class="st3" d="M647.8,350l-86.4,4.3l-6,29v25.8l-3.7,96.2l25.7,75H598l-2.1-9.5l0,0c2.3-3.3,2.5-7.6,0.3-11l-1.7-2.6
		l-2.7-11.3l-6-42l25.7-94.7l3.3,172.7h22.4l3.3-3.7c3.7-4.3,4.2-10.5,1-15.3l0,0v-4.2l-2.6-14.8l24.7-183.7L647.8,350z"/>
	<path class="st2" d="M610.5,169.9l-28.2,1.4l-3.2,13.4l-20.5,15.7c-9.4,7.2-14,19.2-11.7,30.8l11.3,57.7l-0.7,36.1l1.6,14.8
		L559,342l-2.5,2.1c-3.5,2.9-4.6,7.8-2.5,11.9l0,0c0,0-12.4,26.7,5.5,28.1s28.9-17.2,46-10s32.3,8.1,37,0s18.9-6.2,20.6-13.2
		s-7-15-8.1-25.5s-4.2-59.5-4.2-59.5l8.4-48.1c2.4-14-4.7-27.9-17.4-34.1L615,180.5L610.5,169.9z"/>
	<path class="st1" d="M463.7,320.6c2.4-5.1,8.3-7.4,13.5-5.2c0.5,0.2,1,0.5,1.4,0.8l29-21.6l16.1,10.8l-42.9,25.3
		c-2.9,3.7-7.9,5-12.2,3.1c-5-2.2-7.2-8-5-13l0,0C463.6,320.7,463.6,320.6,463.7,320.6z"/>
	<path class="st2" d="M553.7,206.8c0,0-37.5,68.4-52.1,88.5l-11,8.6l1,28.2l24.7-13.6c0,0,49.8-37.7,48.3-53.4
		S553.7,206.8,553.7,206.8z"/>
	<circle class="st1" cx="594" cy="141.1" r="26.6"/>
	<path class="st3" d="M604.3,165.5c-7.6-0.3-8.3-2.3-16-2.5c-2.4-0.1-5.3-0.4-6.5-2.5c-0.8-1.5-0.5-3.4,0.3-5c0.9-1.5,1.7-3,2.4-4.6
		c1.4-4.2-0.8-8.8-5.1-10.2c-0.9-0.3-1.9-0.5-2.9-0.4c-2.3,0.1-4.5,1.2-6.8,1.4c-3.2,0.3-10.2-10.2-8.7-13.1
		c1.4-2.8,4.3-4.8,4.7-7.9c0.3-2-0.5-4-0.6-6c-0.2-3,7.5,3.8,6.1,1.1c-3.4-6.6,28.9-14.7,34.2-6.5c2,3.1,5.5,2.9,8.7,4.7
		c2.1,1.2,7.3,5.4,8.5,8c1.1,2.6,1.6,5.5,1.5,8.4c0,13.3-2,25.6-12.7,33.4"/>
	<circle class="st5" cx="160.3" cy="247" r="15.7"/>
	<path class="st6" d="M158.2,255.2c-0.5,0-1.1-0.3-1.4-0.7l-4.3-5.7c-0.6-0.8-0.4-1.9,0.3-2.4c0.8-0.6,1.9-0.4,2.4,0.3l0,0l2.8,3.7
		l7.2-10.8c0.5-0.8,1.6-1,2.4-0.5c0.8,0.5,1,1.6,0.5,2.4l0,0l-8.6,12.9C159.3,254.9,158.8,255.2,158.2,255.2L158.2,255.2z"/>
	<circle class="st5" cx="213.7" cy="247.1" r="15.7"/>
	<path class="st6" d="M211.6,255.2c-0.5,0-1.1-0.3-1.4-0.7l-4.3-5.7c-0.6-0.8-0.4-1.9,0.3-2.4c0.8-0.6,1.9-0.4,2.4,0.3l0,0l2.8,3.7
		l7.2-10.8c0.5-0.8,1.6-1,2.4-0.5c0.8,0.5,1,1.6,0.5,2.4l0,0l-8.6,12.9C212.7,254.9,212.2,255.2,211.6,255.2L211.6,255.2z"/>
	<circle class="st5" cx="320.2" cy="247.2" r="15.7"/>
	<path class="st6" d="M318,255.4c-0.5,0-1.1-0.3-1.4-0.7l-4.3-5.7c-0.6-0.8-0.4-1.9,0.3-2.4c0.8-0.6,1.9-0.4,2.4,0.3l0,0l2.8,3.7
		l7.2-10.8c0.5-0.8,1.6-1,2.4-0.5s1,1.6,0.5,2.4l0,0l-8.6,12.9C319.2,255.1,318.6,255.3,318,255.4L318,255.4z"/>
	
		<ellipse transform="matrix(0.1602 -0.9871 0.9871 0.1602 -19.9446 470.9579)" class="st5" cx="266.8" cy="247.2" rx="15.7" ry="15.7"/>
	<line class="st7" x1="259.3" y1="255.4" x2="274.5" y2="238.6"/>
	<line class="st7" x1="260.6" y1="239" x2="274" y2="255.1"/>
	
		<image style="display:none;overflow:visible;enable-background:new    ;" width="512" height="512" xlink:href="../../../silueta-hombre.png"  transform="matrix(0.1383 0 0 0.1383 124.9263 148.1673)">
	</image>
	
		<image style="display:none;overflow:visible;enable-background:new    ;" width="512" height="512" xlink:href="../../../silueta-hombre.png"  transform="matrix(0.1383 0 0 0.1383 178.3171 148.1673)">
	</image>
	
		<image style="display:none;overflow:visible;enable-background:new    ;" width="512" height="512" xlink:href="../../../silueta-hombre.png"  transform="matrix(0.1383 0 0 0.1383 231.3526 148.1673)">
	</image>
	
		<image style="display:none;overflow:visible;enable-background:new    ;" width="512" height="512" xlink:href="../../../silueta-hombre.png"  transform="matrix(0.1383 0 0 0.1383 284.7434 148.1673)">
	</image>
</g>
<g id="Capa_2">
	<g>
		<circle cx="160.3" cy="153.1" r="4.9"/>
		<path d="M166.8,187.6h-12.8c-0.6,0-1-0.5-1-1v-25.2c0-0.6,0.5-1,1-1h12.8c0.6,0,1,0.5,1,1v25.2
			C167.8,187.1,167.3,187.6,166.8,187.6z"/>
		<path d="M149.1,188.4h-0.4c-1.4,0-2.5-1.1-2.5-2.5v-17.3c0-1.4,1.1-2.5,2.5-2.5h0.4c1.4,0,2.5,1.1,2.5,2.5v17.3
			C151.7,187.2,150.5,188.4,149.1,188.4z"/>
		<path d="M172,188.4h-0.4c-1.4,0-2.5-1.1-2.5-2.5v-17.3c0-1.4,1.1-2.5,2.5-2.5h0.4c1.4,0,2.5,1.1,2.5,2.5v17.3
			C174.6,187.2,173.4,188.4,172,188.4z"/>
		<path d="M151.2,170.2c0,0,0-1.4,0.6-1.6c0.6-0.1,1.3,0.4,1.5,0.8c0.2,0.4,0.5-5.2,0.5-5.2l-0.1-3.8c-0.2-0.1-3,0.1-3.6,0.4
			c-1.4,0.6-2.4,1.6-2.9,2.3c-0.3,0.6-0.7,1.5-0.9,2.5c-0.4,1.8-0.2,3.4,0,4.3C148,169.9,149.6,170.1,151.2,170.2z"/>
		<path d="M162,177.3c-0.2-0.1-3,0.1-3.6,0.4c-1.4,0.6-2.4,1.6-2.9,2.3L162,177.3z"/>
		<path d="M169.5,170.2c0,0,0-1.4-0.6-1.6c-0.6-0.1-1.3,0.4-1.5,0.8c-0.2,0.4-0.5-5.2-0.5-5.2l0.1-3.8c0.2-0.1,3,0.1,3.6,0.4
			c1.4,0.6,2.4,1.6,2.9,2.3c0.3,0.6,0.7,1.5,0.9,2.5c0.4,1.8,0.2,3.4,0,4.3C172.7,169.9,171.1,170.1,169.5,170.2z"/>
		<path d="M156.3,219L156.3,219c-1.8,0-3.4-1.5-3.4-3.3v-29.9c0-1.8,1.5-3.4,3.4-3.4l0,0c1.8,0,3.4,1.5,3.4,3.4v29.9
			C159.6,217.5,158.1,219,156.3,219z"/>
		<path d="M164.4,219L164.4,219c-1.8,0-3.4-1.5-3.4-3.3V182c0-1.8,1.5-3.3,3.4-3.3l0,0c1.8,0,3.4,1.5,3.4,3.3v33.7
			C167.7,217.5,166.2,219,164.4,219z"/>
	</g>
	<g>
		<circle cx="215.1" cy="151.9" r="4.9"/>
		<path d="M221.6,186.4h-12.8c-0.6,0-1-0.5-1-1v-25.2c0-0.6,0.5-1,1-1h12.8c0.6,0,1,0.5,1,1v25.2
			C222.6,185.9,222.1,186.4,221.6,186.4z"/>
		<path d="M203.9,187.2h-0.4c-1.4,0-2.5-1.1-2.5-2.5v-17.3c0-1.4,1.1-2.5,2.5-2.5h0.4c1.4,0,2.5,1.1,2.5,2.5v17.3
			C206.5,186,205.3,187.2,203.9,187.2z"/>
		<path d="M226.8,187.2h-0.4c-1.4,0-2.5-1.1-2.5-2.5v-17.3c0-1.4,1.1-2.5,2.5-2.5h0.4c1.4,0,2.5,1.1,2.5,2.5v17.3
			C229.4,186,228.2,187.2,226.8,187.2z"/>
		<path d="M206,169c0,0,0-1.4,0.6-1.6c0.6-0.1,1.3,0.4,1.5,0.8c0.2,0.4,0.5-5.2,0.5-5.2l-0.1-3.8c-0.2-0.1-3,0.1-3.6,0.4
			c-1.4,0.6-2.4,1.6-2.9,2.3c-0.3,0.6-0.7,1.5-0.9,2.5c-0.4,1.8-0.2,3.4,0,4.3C202.8,168.7,204.4,168.8,206,169z"/>
		<path d="M216.8,176.1c-0.2-0.1-3,0.1-3.6,0.4c-1.4,0.6-2.4,1.6-2.9,2.3L216.8,176.1z"/>
		<path d="M224.3,169c0,0,0-1.4-0.6-1.6c-0.6-0.1-1.3,0.4-1.5,0.8c-0.2,0.4-0.5-5.2-0.5-5.2l0.1-3.8c0.2-0.1,3,0.1,3.6,0.4
			c1.4,0.6,2.4,1.6,2.9,2.3c0.3,0.6,0.7,1.5,0.9,2.5c0.4,1.8,0.2,3.4,0,4.3C227.5,168.7,225.9,168.8,224.3,169z"/>
		<path d="M211.1,217.8L211.1,217.8c-1.8,0-3.4-1.5-3.4-3.4v-29.9c0-1.8,1.5-3.4,3.3-3.4h0c1.8,0,3.4,1.5,3.4,3.4v29.9
			C214.4,216.2,212.9,217.8,211.1,217.8z"/>
		<path d="M219.2,217.8L219.2,217.8c-1.8,0-3.4-1.5-3.4-3.4v-33.7c0-1.8,1.5-3.4,3.3-3.4h0c1.8,0,3.4,1.5,3.4,3.4v33.7
			C222.5,216.2,221,217.8,219.2,217.8z"/>
	</g>
	<g>
		<circle cx="267.3" cy="151.9" r="4.9"/>
		<path d="M273.7,186.4h-12.8c-0.6,0-1-0.5-1-1v-25.2c0-0.6,0.5-1,1-1h12.8c0.6,0,1,0.5,1,1v25.2
			C274.7,185.9,274.3,186.4,273.7,186.4z"/>
		<path d="M256.1,187.2h-0.4c-1.4,0-2.5-1.1-2.5-2.5v-17.3c0-1.4,1.1-2.5,2.5-2.5h0.4c1.4,0,2.5,1.1,2.5,2.5v17.3
			C258.6,186,257.5,187.2,256.1,187.2z"/>
		<path d="M279,187.2h-0.4c-1.4,0-2.5-1.1-2.5-2.5v-17.3c0-1.4,1.1-2.5,2.5-2.5h0.4c1.4,0,2.5,1.1,2.5,2.5v17.3
			C281.5,186,280.4,187.2,279,187.2z"/>
		<path d="M258.2,169c0,0,0-1.4,0.6-1.6c0.6-0.1,1.3,0.4,1.5,0.8c0.2,0.4,0.5-5.2,0.5-5.2l-0.1-3.8c-0.2-0.1-3,0.1-3.6,0.4
			c-1.4,0.6-2.4,1.6-2.9,2.3c-0.3,0.6-0.7,1.5-0.9,2.5c-0.4,1.8-0.2,3.4,0,4.3C255,168.7,256.6,168.8,258.2,169z"/>
		<path d="M268.9,176.1c-0.2-0.1-3,0.1-3.6,0.4c-1.4,0.6-2.4,1.6-2.9,2.3L268.9,176.1z"/>
		<path d="M276.4,169c0,0,0-1.4-0.6-1.6c-0.6-0.1-1.3,0.4-1.5,0.8c-0.2,0.4-0.5-5.2-0.5-5.2l0.1-3.8c0.2-0.1,3,0.1,3.6,0.4
			c1.4,0.6,2.4,1.6,2.9,2.3c0.3,0.6,0.7,1.5,0.9,2.5c0.4,1.8,0.2,3.4,0,4.3C279.6,168.7,278,168.8,276.4,169z"/>
		<path d="M263.2,217.8L263.2,217.8c-1.8,0-3.4-1.5-3.4-3.4v-29.9c0-1.8,1.5-3.4,3.4-3.4l0,0c1.8,0,3.4,1.5,3.4,3.4v29.9
			C266.5,216.2,265,217.8,263.2,217.8z"/>
		<path d="M271.3,217.8L271.3,217.8c-1.8,0-3.4-1.5-3.4-3.4v-33.7c0-1.8,1.5-3.4,3.4-3.4l0,0c1.8,0,3.4,1.5,3.4,3.4v33.7
			C274.6,216.2,273.1,217.8,271.3,217.8z"/>
	</g>
	<g>
		<circle cx="320" cy="151.9" r="4.9"/>
		<path d="M326.4,186.4h-12.8c-0.6,0-1-0.5-1-1v-25.2c0-0.6,0.5-1,1-1h12.8c0.6,0,1,0.5,1,1v25.2C327.5,185.9,327,186.4,326.4,186.4
			z"/>
		<path d="M308.8,187.2h-0.4c-1.4,0-2.5-1.1-2.5-2.5v-17.3c0-1.4,1.1-2.5,2.5-2.5h0.4c1.4,0,2.5,1.1,2.5,2.5v17.3
			C311.4,186,310.2,187.2,308.8,187.2z"/>
		<path d="M331.7,187.2h-0.4c-1.4,0-2.5-1.1-2.5-2.5v-17.3c0-1.4,1.1-2.5,2.5-2.5h0.4c1.4,0,2.5,1.1,2.5,2.5v17.3
			C334.2,186,333.1,187.2,331.7,187.2z"/>
		<path d="M310.9,169c0,0,0-1.4,0.6-1.6c0.6-0.1,1.3,0.4,1.5,0.8c0.2,0.4,0.5-5.2,0.5-5.2l-0.1-3.8c-0.2-0.1-3,0.1-3.6,0.4
			c-1.4,0.6-2.4,1.6-2.9,2.3c-0.3,0.6-0.7,1.5-0.9,2.5c-0.4,1.8-0.2,3.4,0,4.3C307.7,168.7,309.3,168.8,310.9,169z"/>
		<path d="M321.7,176.1c-0.2-0.1-3,0.1-3.6,0.4c-1.4,0.6-2.4,1.6-2.9,2.3L321.7,176.1z"/>
		<path d="M329.2,169c0,0,0-1.4-0.6-1.6c-0.6-0.1-1.3,0.4-1.5,0.8c-0.2,0.4-0.5-5.2-0.5-5.2l0.1-3.8c0.2-0.1,3,0.1,3.6,0.4
			c1.4,0.6,2.4,1.6,2.9,2.3c0.3,0.6,0.7,1.5,0.9,2.5c0.4,1.8,0.2,3.4,0,4.3C332.4,168.7,330.8,168.8,329.2,169z"/>
		<path d="M316,217.8L316,217.8c-1.8,0-3.4-1.5-3.4-3.4v-29.9c0-1.8,1.5-3.4,3.4-3.4l0,0c1.8,0,3.4,1.5,3.4,3.4v29.9
			C319.3,216.2,317.8,217.8,316,217.8z"/>
		<path d="M324.1,217.8L324.1,217.8c-1.8,0-3.4-1.5-3.4-3.4v-33.7c0-1.8,1.5-3.4,3.3-3.4h0c1.8,0,3.4,1.5,3.4,3.4v33.7
			C327.4,216.2,325.9,217.8,324.1,217.8z"/>
	</g>
</g>
</svg>
