<?xml version="1.0" encoding="utf-8"?>
<!-- Generator: Adobe Illustrator 24.0.2, SVG Export Plug-In . SVG Version: 6.00 Build 0)  -->
<svg version="1.1" id="Capa_1" xmlns="http://www.w3.org/2000/svg" xmlns:xlink="http://www.w3.org/1999/xlink" x="0px" y="0px"
	 viewBox="0 0 1157.3 499" style="enable-background:new 0 0 1157.3 499;" xml:space="preserve">
<style type="text/css">
	.st0{fill:#F2F2F2;}
	.st1{fill:#FFB6B6;}
	.st2{fill:#0EA2BD;}
	.st3{fill:#2F2E41;}
	.st4{fill:#CACACA;}
	.st5{fill:#3F3D56;}
	.st6{fill:#FFB8B8;}
	.st7{fill:#FFFFFF;}
	.st8{font-family:'MyriadPro-Regular';}
	.st9{font-size:12px;}
	.st10{font-size:20px;}
</style>
<path class="st0" d="M412.7,432.9l25.9-8.2c3.2-13.9,3-28.4-0.6-42.2c-10.4,23.2-41,28.8-58.4,47.3c-10.9,11.8-15.9,27.9-13.5,43.7
	l-5.5,18.5c25.8-2.2,49.3-15.6,64.4-36.6c4.1-5.9,7.5-12.2,10-19C424,435.4,412.7,432.9,412.7,432.9z"/>
<path class="st0" d="M385,398.7l19.5-18.9c-3.3-13.9-10-26.8-19.4-37.5c1,25.4-23.8,44.1-31.2,68.4c-4.5,15.4-1.8,32,7.4,45.2
	l3.4,19c22.1-13.5,37.2-35.9,41.3-61.5c1.1-7.1,1.2-14.3,0.5-21.4C396.2,395.9,385,398.7,385,398.7z"/>
<path class="st0" d="M762.6,414.7l8-26c-9.6-10.6-21.7-18.6-35.1-23.5c13.1,21.7,0.4,50.1,5.7,74.9c3.5,15.7,13.9,28.9,28.3,36
	l12.1,15c12.9-22.5,15.2-49.4,6.5-73.8c-2.5-6.7-5.8-13.1-9.9-19C771,406.8,762.6,414.7,762.6,414.7z"/>
<path class="st0" d="M718.7,418l-4.5-26.8c-13.3-5.2-27.7-7-41.9-5.4c21.4,13.6,22.7,44.7,38.5,64.5c10.1,12.5,25.3,19.7,41.4,19.6
	l17.5,8c1.5-25.8-8.4-51-27.1-68.9c-5.2-4.9-11.1-9.2-17.3-12.6C722.7,407.2,718.7,418,718.7,418z"/>
<path class="st1" d="M305.7,356.5c-2.4-5-8.5-7.1-13.4-4.6c-0.5,0.3-1,0.6-1.5,0.9l-29.4-20.3L261,351l28,16.5
	c3.6,4.3,10,4.8,14.2,1.3C306.7,365.8,307.8,360.7,305.7,356.5L305.7,356.5z"/>
<path class="st2" d="M277.8,362.6l-56.5-31.5l0-0.3c0-0.5-3-52.8-1.8-63.9c0.6-6.7,3.5-13.1,8.3-17.9l0.1-0.1l0.2,0
	c7-0.6,13.6,3.7,15.7,10.4c5,15.8,6.2,32.5,3.6,48.8l-1.5,9.3l37.6,28.6L277.8,362.6z"/>
<polygon class="st1" points="363.1,483.2 374,478.5 361.2,434.4 345.1,441.3 "/>
<path class="st3" d="M355.5,481.5l3.5-1.5l11.4-11.5l9.8,2.4l0,0c8.7-3.7,18.8,0.3,22.5,9l0.2,0.5l-40.5,17.4L355.5,481.5z"/>
<polygon class="st1" points="314.2,484.4 326.1,484.4 331.7,438.7 314.2,438.7 "/>
<path class="st3" d="M307.9,479.8l3.8,0l15-6.1l8,6.1h0c9.5,0,17.1,7.7,17.1,17.1v0.6l-44.1,0L307.9,479.8z"/>
<rect x="237" y="435.6" class="st4" width="21" height="34.9"/>
<rect x="278.5" y="442.7" transform="matrix(0.5615 -0.8275 0.8275 0.5615 -268.3863 439.9809)" class="st4" width="4.8" height="61"/>
<rect x="183.7" y="470.8" transform="matrix(0.8275 -0.5615 0.5615 0.8275 -228.7608 201.9111)" class="st4" width="61" height="4.8"/>
<circle class="st4" cx="306.2" cy="490.4" r="6.6"/>
<circle class="st4" cx="247.3" cy="490.4" r="6.6"/>
<circle class="st4" cx="188.9" cy="490.4" r="6.6"/>
<rect x="244.9" y="456.1" class="st4" width="4.8" height="34.3"/>
<rect x="243.1" y="405" class="st4" width="9" height="46.3"/>
<path class="st5" d="M201.7,412.2v-10.8c0-4.1,3.4-7.5,7.5-7.5h70.3c4.1,0,7.5,3.4,7.5,7.5v10.8c0,4.1-3.4,7.5-7.5,7.5h-70.3
	C205.1,419.7,201.7,416.3,201.7,412.2z"/>
<path class="st4" d="M511.5,499H1.2c-0.7,0-1.2-0.5-1.2-1.2c0-0.7,0.5-1.2,1.2-1.2h510.3c0.7,0,1.2,0.5,1.2,1.2
	C512.7,498.5,512.1,499,511.5,499z"/>
<path class="st3" d="M192.2,340.3l51,1l1.9,14.5c0,0,89.1-4.5,97,14c17.7,41.7,33,90,33,90l-22,7l-43-72c0,0-119.9,35.5-110.9-24.5
	L192.2,340.3z"/>
<path class="st3" d="M346.4,382.7c-5.2,45-16.4,87.1-16.4,87.1l-21-3l4.8-84.9"/>
<circle class="st1" cx="234.4" cy="206.5" r="24.5"/>
<path class="st3" d="M235.2,230c-5.7,2.7-12.8,1.8-18.3-1.4s-9.5-8.5-12.3-14.2c-2.1-4.2-3.6-9-2.4-13.5s6-8.3,10.4-6.9
	c-3.1-2.5-2.7-7.5-0.2-10.6s6.4-4.5,10.1-5.6c5.5-1.6,11.2-2.7,16.8-1.9s11.2,3.9,13.8,8.9c3.8,1,7.7-0.7,9.6-4.1
	c1.3,3.3,0.2,7-2.7,9.1l7.6-4.1c1.9,2.7,0.2,6.8-2.8,8.3s-6.5,1.1-9.7,0.3s0.6,6-2.7,6.1s-6.9,1.8-7.9,5c-0.5,1.7-0.2,3.5-0.4,5.2
	s-1,3.7-2.7,4.1c-1.1,0.3-2.2-0.1-3.3,0.2c-1.3,0.5-2.2,1.8-2.2,3.1c0,1.4,0.2,2.7,0.7,4c1.7,5.1-3.7,2.3-2,7.4"/>
<path class="st2" d="M200,391.9L200,391.9l-0.2,0l-0.1-0.2c-0.7-2.4-1.6-4.8-2.5-7.1c-1.3-3.2-2.4-6.6-3.2-10
	c-0.7-3.2-1.2-6.5-1.4-9.8c-0.2-2.4-0.5-4.9-0.9-7.3c-0.2-1.1,0.5-2.1,1.2-3.1c0.6-0.9,1.2-1.8,1.1-2.6c-0.1-0.8-1.1-1.8-2-2.7
	c-1-1-2-2-2.1-3c-2-14.5-2.9-29.1-2.7-43.7c0.2-20.2,1.1-34,2.7-41c4.3-18.7,24.2-22.2,27.3-22.6c1.3-3.6,5.3-5.4,8.9-4
	c0.2,0.1,0.3,0.1,0.4,0.2l14.1,6.5c5.8,2.7,10.2,7.6,12.2,13.7l2.1,6.4l1.1,43l-5.8,30.3l11.4,17.1
	C200.9,385.1,200.1,391.9,200,391.9z"/>
<path class="st6" d="M905.1,359.6c0.5,0.1,0.9,0.2,1.4,0.4l17.5-47.4l1.6-48.6c0.2-6.7,5.8-11.9,12.5-11.7c6,0.2,11,4.8,11.6,10.8
	l0,0c1.1,9.9,0.6,19.8-1.5,29.5l-6.7,32.1L911.2,370c-1.4,4.2-5.9,6.5-10.1,5.1c-4.2-1.4-6.5-5.9-5.1-10.1
	C897.2,361.1,901.1,358.8,905.1,359.6L905.1,359.6z"/>
<path class="st3" d="M944.2,313.1l-21.3-3.1l-3.6-45.2c2.1-10.3,12.1-17,22.4-14.9c10.3,2.1,17,12.1,14.9,22.4l0,0L944.2,313.1z"/>
<rect x="915.9" y="313.7" class="st6" width="44.9" height="44.9"/>
<polygon class="st1" points="809.4,445.9 792.2,440.1 782.7,486.8 794.3,490.7 "/>
<polygon class="st1" points="839.8,437 822.2,441.2 838.7,485.9 850.7,483 "/>
<rect x="899.2" y="435.6" class="st4" width="21" height="34.9"/>
<rect x="845.8" y="470.8" transform="matrix(0.8275 -0.5615 0.5615 0.8275 -114.5202 573.7191)" class="st4" width="61" height="4.8"/>
<rect x="940.7" y="442.7" transform="matrix(0.5615 -0.8275 0.8275 0.5615 21.976 987.9117)" class="st4" width="4.8" height="61"/>
<circle class="st4" cx="851.1" cy="490.4" r="6.6"/>
<circle class="st4" cx="910" cy="490.4" r="6.6"/>
<circle class="st4" cx="968.4" cy="490.4" r="6.6"/>
<rect x="907.6" y="456.1" class="st4" width="4.8" height="34.3"/>
<rect x="905.2" y="405" class="st4" width="9" height="46.3"/>
<path class="st5" d="M948.1,419.7h-70.3c-4.1,0-7.5-3.4-7.5-7.5v-10.8c0-4.1,3.4-7.5,7.5-7.5h70.3c4.1,0,7.5,3.4,7.5,7.5v10.8
	C955.6,416.3,952.2,419.7,948.1,419.7z"/>
<path class="st3" d="M959.2,370.3c9,60-110.9,24.5-110.9,24.5l-43,72l-22-7c0,0,15.3-48.3,33-90c7.9-18.5,97-14,97-14l1.9-14.5l51-1
	L959.2,370.3z"/>
<path class="st3" d="M844.5,381.9l4.8,84.9l-21,3c0,0-11.2-42.1-16.4-87.1"/>
<path class="st2" d="M933.5,240.7l9-11.6l12.9-0.6l1.3,10.9l6.4,2.9c6.4,24.2,7.4,49.6,2.9,74.2l0,0l0,0c-1.7,1.6-2.5,4.1-1.9,6.4
	l0.4,1.7l0,0.1c-1.4,2.1-1.8,4.7-1.3,7.2l0,0l11.7,20.8c-24.8,10.1-43-8.7-59.8-33.4l-10.4-36.1L933.5,240.7z"/>
<polygon class="st3" points="906.3,307.5 903.9,283.1 936.2,235.3 937.5,236.2 905.5,283.6 907.9,307.3 "/>
<circle class="st3" cx="907.1" cy="307.4" r="2.4"/>
<circle class="st6" cx="943.9" cy="208.4" r="23.8"/>
<path class="st3" d="M947.5,179.4l2.9,0.8l1,0.3l11,2.9c9.8,2.6,15.3,13.6,12.4,24.6c5.4,9.4,0.7,18-7.8,26.4
	c-10.9-1.5-21.9-1.5-32.8,0l0.2-6.3l-4.8,7.1c-2.8,0.5-5.5,1.2-8.3,1.9c6.3-12.4,10.9-25.2,11.7-35.9l-5-1.3l1.5-5.5l-3.2,5.1
	l-9.1-2.4l0,0C920.6,183.8,934.2,175.9,947.5,179.4C947.5,179.4,947.5,179.4,947.5,179.4z"/>
<circle class="st3" cx="967.8" cy="182.9" r="11.2"/>
<path class="st6" d="M928.1,365.9c0.5,0,1,0,1.4,0.1l7.9-49.9l-7.9-48c-1.1-6.6,3.4-12.8,10-13.9c5.9-1,11.7,2.6,13.5,8.3l0,0
	c3,9.5,4.4,19.3,4.3,29.3l-0.3,32.7l-21,50.3c-0.5,4.4-4.5,7.5-8.9,7s-7.5-4.5-7-8.9C920.6,368.9,924.1,365.9,928.1,365.9
	L928.1,365.9z"/>
<path class="st3" d="M957.3,312.6l-21.5,1.1L923.5,270c0-10.5,8.5-19,19-19s19,8.5,19,19L957.3,312.6z"/>
<path class="st3" d="M804.5,497.3h-7.7l-1.4-7.3l-3.5,7.3h-20.4c-2.5,0-4.6-2.1-4.6-4.6c0-1.5,0.7-2.9,2-3.8l16.3-11.3v-7.4l17.2,1
	L804.5,497.3z"/>
<path class="st3" d="M855.1,494.4l-7.6,1l-2.3-7l-2.6,7.7l-20.3,2.6c-2.5,0.3-4.8-1.5-5.1-4c-0.2-1.5,0.4-3,1.5-4l14.7-13.3
	l-0.9-7.3l17.2-1.2L855.1,494.4z"/>
<path class="st4" d="M644.6,497.8c0-0.7,0.5-1.2,1.2-1.2c0,0,0,0,0,0h510.3c0.7,0,1.2,0.5,1.2,1.2c0,0.7-0.5,1.2-1.2,1.2H645.8
	C645.2,499,644.6,498.5,644.6,497.8z"/>
<path class="st5" d="M977.7,339.1l-3.1,0c-6.1-0.1-11-5.1-11-11.2l0-27.3c0.1-6.1,5.1-11,11.2-11l3.1,0c6.1,0.1,11,5.1,11,11.2
	l0,27.3C988.8,334.3,983.8,339.2,977.7,339.1z"/>
<path class="st5" d="M921,407.1l2.3-3.3c5.6,3.9,12.2,6,19,6c18.2,0,38-56.3,38-74.5h4c0,20.4-21.6,78.5-42,78.5
	C934.7,413.8,927.2,411.5,921,407.1z"/>
<path class="st1" d="M280.4,373.8c-1.6-5.3-7.2-8.4-12.5-6.8c-0.6,0.2-1.1,0.4-1.6,0.6l-25.6-25l-3.5,18.2l24.8,20.9
	c2.8,4.8,9,6.4,13.8,3.6C279.9,383.1,281.8,378.3,280.4,373.8z"/>
<path class="st2" d="M251.9,375.1l-50.5-40.5l0-0.3c0.1-0.5,5.9-52.5,8.9-63.3c1.7-6.5,5.7-12.3,11.1-16.3l0.1-0.1l0.2,0
	c7,0.5,12.7,5.9,13.7,12.9c2.3,16.4,0.7,33.1-4.6,48.7l-3,8.9l32.3,34.5L251.9,375.1z"/>
<path class="st5" d="M163.1,337.8l-0.4-30.2c-0.2-6.1,4.7-11.2,10.8-11.4l3.1-0.1c6.1-0.2,11.2,4.7,11.4,10.8l0.4,30.2
	c0.2,6.1-4.7,11.2-10.8,11.4l-3.1,0.1C168.4,348.7,163.3,343.9,163.1,337.8z"/>
<path class="st5" d="M212,410.3c-20.4,0-43-47.6-43-68h4c0,18.2,20.8,64,39,64c6.8,0,13.4-2.1,19-6l2.3,3.3
	C227.1,407.9,219.6,410.3,212,410.3z"/>
<path class="st5" d="M874.6,164.2h-90.5c-6.6,0-12-5.4-12-12v-35.7c0-6.6,5.4-12,12-12h90.5c6.6,0,12,5.4,12,12v35.7
	C886.6,158.8,881.2,164.2,874.6,164.2z"/>
<path class="st5" d="M886.6,152.2c6.5,16.4,6.3,20.1,11.4,23.6s-12,0.6-17.2-6.6c-5.2-7.2-20.1-29.1-20.1-29.1L886.6,152.2z"/>
<text transform="matrix(1 0 0 1 796.296 124.1751)"><tspan x="0" y="0" class="st7 st8 st9">7:30 - 7:35 am</tspan><tspan x="0" y="14.4" class="st7 st8 st9">8:40 - 8:45 am</tspan><tspan x="0" y="28.8" class="st7 st8 st9">9:20 - 9:25 am</tspan></text>
<path class="st5" d="M439.8,227.1h-90.5c-6.6,0-12-5.4-12-12v-35.7c0-6.6,5.4-12,12-12h90.5c6.6,0,12,5.4,12,12v35.7
	C451.8,221.7,446.4,227.1,439.8,227.1z"/>
<path class="st5" d="M337.4,208.2c1,17.1-11,35.2-6.5,30.9c1.1-1,30.9-20,25.7-27.2c-5.2-7.2-7.2-12.5-7.2-12.5L337.4,208.2z"/>
<text transform="matrix(1 0 0 1 375.0048 203.5711)" class="st7 st8 st10">¡Ok!</text>
</svg>
